<?xml version="1.0" encoding="utf-8"?>
<!-- Generator: Adobe Illustrator 26.0.3, SVG Export Plug-In . SVG Version: 6.00 Build 0)  -->
<svg version="1.1" id="icons" xmlns="http://www.w3.org/2000/svg" xmlns:xlink="http://www.w3.org/1999/xlink" x="0px" y="0px"
	 viewBox="0 0 256 256" style="enable-background:new 0 0 256 256;" xml:space="preserve">
<style type="text/css">
	.st0{fill:#EDEBE3;}
	.st1{fill:#F5F3ED;}
	.st2{fill:#FFFFFF;}
	.st3{fill:#240046;}
	.st4{fill:#EC5657;}
</style>
<g>
	<g>
		<g>
			<path class="st0" d="M146.8,127.7c1-1.1,2.6-1.5,4.1-1.1l11.4,3.6c6.7,2.1,11.3,8.4,11.3,15.4v31.8H83.7v-31.8
				c0-7.1,4.6-13.3,11.3-15.4l11.1-3.5c1.6-0.5,3.4,0.1,4.4,1.4l15.9,21.6L146.8,127.7z"/>
		</g>
		<g>
			<g>
				<path class="st1" d="M108.9,130.2l2.6-0.8l-0.9-1.2c-1-1.4-2.8-1.9-4.4-1.4L95,130.2c-6.7,2.1-11.3,8.4-11.3,15.4v31.8h13.8
					v-31.8C97.5,138.6,102.1,132.3,108.9,130.2z"/>
			</g>
		</g>
		<g>
			<path class="st2" d="M134.8,120.9h-14.6c-4.2,0-7.7-3.4-7.7-7.7V85.9c0-4.2,3.4-7.7,7.7-7.7h14.6c4.2,0,7.7,3.4,7.7,7.7v27.3
				C142.5,117.5,139.1,120.9,134.8,120.9z"/>
		</g>
		<g>
			<path class="st1" d="M122.9,112.1v-25c0-4.9,4-8.8,8.8-8.8h-10.4c-4.9,0-8.8,4-8.8,8.8v25c0,4.9,4,8.8,8.8,8.8h10.4
				C126.9,120.9,122.9,117,122.9,112.1z"/>
		</g>
		<g>
			<path class="st3" d="M134.8,122.9h-14.6c-5.3,0-9.7-4.3-9.7-9.7V85.9c0-5.3,4.3-9.7,9.7-9.7h14.6c5.3,0,9.7,4.3,9.7,9.7v27.3
				C144.5,118.6,140.2,122.9,134.8,122.9z M120.2,80.3c-3.1,0-5.7,2.5-5.7,5.7v27.3c0,3.1,2.5,5.7,5.7,5.7h14.6
				c3.1,0,5.7-2.5,5.7-5.7V85.9c0-3.1-2.5-5.7-5.7-5.7L120.2,80.3L120.2,80.3z"/>
		</g>
		<g>
			<path class="st3" d="M173,180c-1.1,0-2-0.9-2-2v-31.8c0-6.2-4-11.7-9.9-13.5l-11.4-3.6c-0.7-0.2-1.5,0-2,0.5L135,143.2
				c-0.8,0.8-2,0.8-2.8,0.1c-0.8-0.8-0.8-2-0.1-2.8l12.7-13.5c1.6-1.7,4-2.3,6.2-1.6l11.4,3.6c7.6,2.4,12.7,9.4,12.7,17.3V178
				C175,179.1,174.2,180,173,180z"/>
		</g>
		<g>
			<path class="st3" d="M83.1,180c-1.1,0-2-0.9-2-2v-31.8c0-8,5.1-14.9,12.7-17.3l11.1-3.5c2.4-0.8,5.1,0.1,6.6,2.2l18.7,25.3
				c0.7,0.9,0.5,2.1-0.4,2.8s-2.1,0.5-2.8-0.4L108.3,130c-0.5-0.7-1.4-1-2.2-0.7L95,132.8c-5.9,1.9-9.9,7.3-9.9,13.5V178
				C85.1,179.1,84.2,180,83.1,180z"/>
		</g>
	</g>
	<g>
		<path class="st3" d="M128.4,235.5l-93-53.7V74.4l1-0.6l92-53.1l93,53.7v107.4l-1,0.6L128.4,235.5z M39.4,179.5l89,51.4l89-51.4
			V76.7l-89-51.4l-89,51.4C39.4,76.7,39.4,179.5,39.4,179.5z"/>
	</g>
	<g>
		<circle class="st4" cx="128" cy="23" r="11"/>
	</g>
	<g>
		<circle class="st4" cx="219" cy="76" r="11"/>
	</g>
	<g>
		<circle class="st4" cx="219" cy="180" r="11"/>
	</g>
	<g>
		<circle class="st4" cx="37" cy="76" r="11"/>
	</g>
	<g>
		<circle class="st4" cx="37" cy="180" r="11"/>
	</g>
	<g>
		<circle class="st4" cx="128" cy="233" r="11"/>
	</g>
	<g>
		<path class="st3" d="M127.5,65.5c-1.1,0-2-0.9-2-2v-16c0-1.1,0.9-2,2-2c1.1,0,2,0.9,2,2v16C129.5,64.6,128.6,65.5,127.5,65.5z"/>
	</g>
	<g>
		<path class="st3" d="M183.9,97.4c-0.7,0-1.4-0.4-1.7-1c-0.6-1-0.2-2.2,0.7-2.7l13.9-8c1-0.6,2.2-0.2,2.7,0.7
			c0.6,1,0.2,2.2-0.7,2.7l-13.9,8C184.5,97.3,184.2,97.4,183.9,97.4z"/>
	</g>
	<g>
		<path class="st3" d="M198.3,170.1c-0.3,0-0.7-0.1-1-0.3l-13.8-8c-1-0.6-1.3-1.8-0.7-2.7c0.6-1,1.8-1.3,2.7-0.7l13.8,8
			c1,0.6,1.3,1.8,0.7,2.7C199.6,169.7,199,170.1,198.3,170.1z"/>
	</g>
	<g>
		<path class="st3" d="M128.6,210.9L128.6,210.9c-1.1,0-2-0.9-2-2v-16c0-1.1,0.9-2,2-2l0,0c1.1,0,2,0.9,2,2v16
			C130.6,210,129.7,210.9,128.6,210.9z"/>
	</g>
	<g>
		<path class="st3" d="M58.4,170.9c-0.7,0-1.4-0.4-1.7-1c-0.5-1-0.2-2.2,0.7-2.7l13.9-8c1-0.5,2.2-0.2,2.7,0.7
			c0.5,1,0.2,2.2-0.7,2.7l-13.9,8C59.1,170.9,58.8,170.9,58.4,170.9z"/>
	</g>
	<g>
		<path class="st3" d="M71.9,98.2c-0.3,0-0.7-0.1-1-0.3l-13.8-8c-1-0.6-1.3-1.8-0.7-2.7c0.6-1,1.8-1.3,2.7-0.7l13.8,8
			c1,0.6,1.3,1.8,0.7,2.7C73.2,97.9,72.5,98.2,71.9,98.2z"/>
	</g>
</g>
</svg>
