<?xml version="1.0" encoding="utf-8"?>
<!-- Generator: Adobe Illustrator 26.0.3, SVG Export Plug-In . SVG Version: 6.00 Build 0)  -->
<svg version="1.1" id="Layer_1" xmlns="http://www.w3.org/2000/svg" xmlns:xlink="http://www.w3.org/1999/xlink" x="0px" y="0px"
	 viewBox="0 0 208.4 223.9" style="enable-background:new 0 0 208.4 223.9;" xml:space="preserve">
<style type="text/css">
	.st0{fill:#EDEBE3;}
	.st1{fill:#EC5657;}
	.st2{fill:none;stroke:#240046;stroke-width:4;stroke-linecap:round;stroke-miterlimit:10;}
</style>
<g id="Layer_2_00000082344950952706030900000006799863872405124257_">
	<g id="icons">
		<path class="st0" d="M47.9,136.2c-20.6,0-37.2,16.7-37.2,37.2s16.7,37.2,37.2,37.2s37.2-16.7,37.2-37.2S68.5,136.2,47.9,136.2
			L47.9,136.2z M47.9,202.1c-15.8,0-28.6-12.8-28.6-28.6s12.8-28.6,28.6-28.6s28.6,12.8,28.6,28.6l0,0
			C76.5,189.3,63.7,202.1,47.9,202.1z"/>
		<circle class="st1" cx="48.4" cy="174" r="9.5"/>
		<path class="st0" d="M130.9,2.5v27.2c0,3.2-2.6,5.8-5.8,5.8H57.9v11h84v-44H130.9z"/>
		<path class="st0" d="M198.9,161.5v24.2c0,2.1-1.7,3.8-3.8,3.8c0,0,0,0,0,0h-44.2v7h55v-35H198.9z"/>
		<path class="st0" d="M119.9,161.5v24.2c0,2.1-1.7,3.8-3.8,3.8c0,0,0,0,0,0H89.9v7h37v-35H119.9z"/>
		<path class="st0" d="M186.9,84.5v24.2c0,2.1-1.7,3.8-3.8,3.8c0,0,0,0,0,0h-22.2v7h33v-35H186.9z"/>
		<path class="st0" d="M109.9,84.5v24.2c0,2.1-1.7,3.8-3.8,3.8c0,0,0,0,0,0H83.9v7h33v-35H109.9z"/>
		<path class="st0" d="M32.9,84.5v24.2c0,2.1-1.7,3.8-3.8,3.8c0,0,0,0,0,0H6.9v7h33v-35H32.9z"/>
		<circle class="st2" cx="47.9" cy="173.5" r="36.5"/>
		<circle class="st2" cx="47.9" cy="173.5" r="9.5"/>
		<line class="st2" x1="21.6" y1="201.6" x2="14.2" y2="209"/>
		<polyline class="st2" points="2,211.9 8.6,205.3 18.6,215.3 12,221.9 		"/>
		<path class="st2" d="M58,2h84c0.3,0,0.5,0.2,0.5,0.5v43c0,0.3-0.2,0.5-0.5,0.5H58c-0.3,0-0.5-0.2-0.5-0.5v-43
			C57.4,2.2,57.7,2,58,2z"/>
		<path class="st2" d="M151,162h55c0.3,0,0.5,0.2,0.5,0.5v34c0,0.3-0.2,0.5-0.5,0.5h-55c-0.3,0-0.5-0.2-0.5-0.5v-34
			C150.4,162.2,150.7,162,151,162z"/>
		<path class="st2" d="M95.4,162h31.5c0.3,0,0.5,0.2,0.5,0.5v34c0,0.3-0.2,0.5-0.5,0.5H90.4"/>
		<path class="st2" d="M84.4,85h32.1c0.5,0,0.9,0.4,0.9,0.9v32.1c0,0.5-0.4,0.9-0.9,0.9H84.4c-0.5,0-0.9-0.4-0.9-0.9V85.9
			C83.4,85.4,83.9,85,84.4,85z"/>
		<path class="st2" d="M161.4,85h32.1c0.5,0,0.9,0.4,0.9,0.9v32.1c0,0.5-0.4,0.9-0.9,0.9h-32.1c-0.5,0-0.9-0.4-0.9-0.9V85.9
			C160.4,85.4,160.9,85,161.4,85z"/>
		<path class="st2" d="M7.4,85h32.1c0.5,0,1,0.4,1,0.9v32.1c0,0.5-0.4,0.9-1,0.9H7.4c-0.5,0-0.9-0.4-0.9-0.9V85.9
			C6.4,85.4,6.9,85,7.4,85z"/>
		<line class="st2" x1="100.4" y1="46" x2="100.4" y2="85"/>
		<line class="st2" x1="100.4" y1="120" x2="100.4" y2="160"/>
		<line class="st2" x1="178.4" y1="120" x2="178.4" y2="160"/>
		<line class="st2" x1="43.4" y1="102" x2="83.4" y2="102"/>
		<line class="st2" x1="119.4" y1="102" x2="159.4" y2="102"/>
		<line class="st2" x1="129.4" y1="179" x2="147.4" y2="179"/>
	</g>
</g>
</svg>
