<?xml version="1.0" encoding="utf-8"?>
<!-- Generator: Adobe Illustrator 26.0.3, SVG Export Plug-In . SVG Version: 6.00 Build 0)  -->
<svg version="1.1" id="Layer_1" xmlns="http://www.w3.org/2000/svg" xmlns:xlink="http://www.w3.org/1999/xlink" x="0px" y="0px"
	 viewBox="0 0 256 256" style="enable-background:new 0 0 256 256;" xml:space="preserve">
<style type="text/css">
	.st0{fill:#EC5657;}
	.st1{display:none;}
	.st2{display:inline;}
	.st3{fill:#240046;}
	.st4{fill:#FFFFFF;}
	.st5{fill:#EDEBE3;}
</style>
<g id="bg">
</g>
<g id="icons">
	<g>
		<g>
			<circle class="st0" cx="127.9" cy="128" r="71"/>
		</g>
		<g class="st1">
			<g class="st2">
				<path class="st3" d="M234.7,151.2H231c-5.8,0-10.6-4.6-10.9-10.4c0-0.1,0-0.2,0-0.2v-0.3h4c0,3.8,3.1,6.9,6.9,6.9h3.7
					c3.8,0,6.9-3.1,6.9-6.9c0-2.1-1-4-2.6-5.2L225.7,125c-2.6-2-4.2-5.1-4.2-8.4c0-6,4.9-10.9,10.9-10.9h3.7
					c5.8,0,10.6,4.6,10.9,10.4c0,0.1,0,0.2,0,0.2v0.3h-4c0-3.8-3.1-6.9-6.9-6.9h-3.7c-3.8,0-6.9,3.1-6.9,6.9c0,2.1,1,4,2.6,5.2
					l13.3,10.1c2.6,2,4.2,5.1,4.2,8.4C245.6,146.4,240.7,151.2,234.7,151.2z"/>
			</g>
			<g class="st2">
				<path class="st3" d="M233.6,106.9c-1.1,0-2-0.9-2-2v-4.3c0-1.1,0.9-2,2-2s2,0.9,2,2v4.3C235.6,106,234.7,106.9,233.6,106.9z"/>
			</g>
			<g class="st2">
				<path class="st3" d="M233.6,158.4c-1.1,0-2-0.9-2-2v-4.3c0-1.1,0.9-2,2-2s2,0.9,2,2v4.3C235.6,157.5,234.7,158.4,233.6,158.4z"
					/>
			</g>
		</g>
		<g>
			<path class="st3" d="M228.3,188.9c-0.8,0-1.5-0.2-2.2-0.7l-8.1-5.3c-1.2-0.8-1.9-2.1-1.8-3.5c0.1-1.4,0.9-2.7,2.1-3.3l9-4.8
				c1.3-0.7,2.9-0.6,4.1,0.2c1.2,0.8,1.9,2.2,1.8,3.7l-0.8,10.1c-0.1,1.4-1,2.6-2.2,3.3C229.5,188.8,228.9,188.9,228.3,188.9z
				 M220.2,179.6l8.1,5.3l0.8-10.1L220.2,179.6z"/>
		</g>
		<g>
			<path class="st3" d="M29.5,85.4c-0.7,0-1.4-0.2-2-0.5c-1.3-0.7-2-2.1-2-3.5l0.2-10.2c0-1.4,0.8-2.7,2-3.4c1.2-0.7,2.7-0.7,4,0
				l8.4,4.8c1.2,0.7,2,2,2,3.4s-0.7,2.7-1.9,3.5l-8.7,5.3C30.9,85.2,30.2,85.4,29.5,85.4z M29.7,71.3l-0.2,10.2l8.6-5.3L29.7,71.3z
				 M38.1,76.1L38.1,76.1L38.1,76.1z"/>
		</g>
		<g>
			<g id="XMLID_29_">
				<path class="st4" d="M61.1,191.1c4.3-6,10.3-10.6,17.6-13.1l15.1-5.2l15.1-5.2v-3v-18h40.5v18v3l15.1,5.2l15.1,5.2
					c7.3,2.5,13.3,7.1,17.6,13.1l-0.3,8.9h-136L61.1,191.1z"/>
			</g>
			<g id="XMLID_28_">
				<path class="st4" d="M160.7,98.2l-1.2,12.7c3.3,0.3,5.6,3.5,4.8,6.8L164,119c-0.7,2.9-2.9,5.2-5.7,6.1l-1.3,16.6
					c-0.4,5-3.3,9.5-7.8,11.9l-11.5,7.3c-2.7,1.7-5.9,2.6-9.1,2.6l0,0c-3.3,0-6.5-1-9.3-2.8l-10.8-7.1c-4.5-2.3-7.4-6.8-7.8-11.9
					l-1.3-16.3c-3.3-0.6-6-3-6.8-6.3V85.2L162,85L160.7,98.2z"/>
			</g>
			<g>
				<path class="st3" d="M146.4,196c-0.8,0-1.5-0.2-2.2-0.7l-19.2-14l21.1-14c0.9-0.6,2.2-0.4,2.8,0.6c0.6,0.9,0.4,2.2-0.6,2.8
					L132,181.4l14.3,10.4l2.9-14.2c0.2-1.1,1.3-1.8,2.4-1.6c1.1,0.2,1.8,1.3,1.6,2.4l-3,14.6c-0.3,1.2-1.1,2.3-2.3,2.7
					C147.3,195.9,146.9,196,146.4,196z"/>
			</g>
			<g id="XMLID_10_">
				<path class="st3" d="M197.2,193.1c-0.6,0-1.2-0.3-1.6-0.8c-4.1-5.8-9.9-10.1-16.6-12.4l-31.6-10.8v-7.4c0-1.1,0.9-2,2-2
					s2,0.9,2,2v4.5l28.9,9.9c7.5,2.6,14,7.4,18.6,13.8c0.6,0.9,0.4,2.1-0.5,2.8C198,193,197.6,193.1,197.2,193.1z"/>
			</g>
			<g id="XMLID_27_">
				<path class="st3" d="M61.1,193.1c-0.4,0-0.8-0.1-1.2-0.4c-0.9-0.6-1.1-1.9-0.5-2.8c4.6-6.5,11.1-11.3,18.6-13.8l28.9-9.9v-4.5
					c0-1.1,0.9-2,2-2s2,0.9,2,2v7.4l-31.6,10.8c-6.7,2.3-12.5,6.6-16.6,12.4C62.4,192.8,61.7,193.1,61.1,193.1z"/>
			</g>
			<g>
				<path class="st3" d="M110.4,196c-0.5,0-0.9-0.1-1.4-0.3c-1.2-0.5-2.1-1.5-2.3-2.7l-2.8-13.5c-0.2-1.1,0.5-2.1,1.6-2.4
					c1.1-0.2,2.1,0.5,2.4,1.6l2.7,13.1l14.3-10.4l-16.3-10.8c-0.9-0.6-1.2-1.9-0.6-2.8c0.6-0.9,1.9-1.2,2.8-0.6l21.1,14l-19.2,14
					C112,195.7,111.2,196,110.4,196z"/>
			</g>
			<g>
				<path class="st5" d="M125.9,85.1l-33.4,0.1v33.7c0.8,3.3,3.5,5.8,6.8,6.3l1.3,16.3c0.4,5,3.3,9.5,7.8,11.9l10.8,7.1
					c2.6,1.7,3.6,2.6,6.6,2.8l-2.4-9.3c-1.2-4.8-1.1-9.9,0.3-14.7l2.8-9.3c0.8-2.7,1.1-5.4,0.8-8.2l-1.5-13.9L125.9,85.1L125.9,85.1
					z"/>
			</g>
			<g id="XMLID_33_">
				<path class="st3" d="M128.6,165.4c-3.7,0-7.3-1.1-10.4-3.1l-10.8-7.1c-5.1-2.7-8.4-7.7-8.8-13.5l-1.2-14.9
					c-3.4-1.1-6-3.9-6.9-7.5c-0.3-1.1,0.4-2.2,1.5-2.4c1.1-0.3,2.2,0.4,2.4,1.5c0.6,2.5,2.7,4.4,5.2,4.8l1.5,0.3l1.4,17.9
					c0.3,4.4,2.8,8.2,6.7,10.3l0.2,0.1l10.8,7.1c2.4,1.6,5.3,2.5,8.2,2.5c2.8,0,5.6-0.8,8-2.3l11.6-7.4c3.9-2,6.4-5.9,6.7-10.3
					l1.4-18l1.3-0.4c2.2-0.7,3.8-2.4,4.3-4.6l0.3-1.3c0.2-1,0-2-0.5-2.9c-0.6-0.8-1.5-1.4-2.6-1.5l-2-0.2l1.4-14.6
					c0.1-1.1,1.1-1.9,2.2-1.8c1.1,0.1,1.9,1.1,1.8,2.2l-1,10.9c1.4,0.5,2.6,1.5,3.5,2.7c1.2,1.8,1.7,4,1.2,6.1l-0.3,1.3
					c-0.7,3.1-2.9,5.6-5.7,7l-1.2,15.4c-0.4,5.7-3.7,10.8-8.8,13.5l-11.4,7.2C135.7,164.3,132.2,165.4,128.6,165.4z"/>
			</g>
			<g id="XMLID_11_">
				<path class="st4" d="M170.1,64.6v12.2c0,7.4-6,13.4-13.4,13.4h-53.1c-3.7,0-6.7,3-6.7,6.7v12.3c0,0.7-0.6,1.3-1.3,1.3h-6.3
					c-0.7,0-1.3-0.6-1.3-1.3V80.6c1.6-4.7,6-4.5,8.1-4.2c0.6,0.1,1.2-0.4,1.2-1c0.6-6.7,6.3-12,13.2-12h58.4
					C169.5,63.5,170.1,64,170.1,64.6z"/>
			</g>
			<g>
				<g>
					<path class="st5" d="M156.6,82.3h-53.1c-3.7,0-6.7,3-6.7,6.7v8c0-3.7,3-6.7,6.7-6.7h53.1c7.4,0,13.4-6,13.4-13.4v-8
						C170.1,76.3,164,82.3,156.6,82.3z"/>
				</g>
			</g>
			<g id="XMLID_175_">
				<path class="st3" d="M95.5,112.7h-6.3c-1.8,0-3.3-1.5-3.3-3.3v-29L86,80c1.3-4,4.8-6.1,9.4-5.6c1.2-7.4,7.5-12.9,15.1-12.9h58.4
					c1.8,0,3.2,1.4,3.2,3.2v12.2c0,8.5-6.9,15.4-15.4,15.4h-53.1c-2.6,0-4.7,2.1-4.7,4.7v12.3C98.8,111.2,97.3,112.7,95.5,112.7z
					 M89.9,108.7h4.9V97c0-4.8,3.9-8.7,8.7-8.7h53.1c6.3,0,11.4-5.1,11.4-11.4V65.5h-57.6c-5.9,0-10.7,4.4-11.3,10.2
					c-0.1,0.9-0.5,1.7-1.2,2.2s-1.5,0.7-2.3,0.6c-3-0.5-4.9,0.3-5.8,2.5v27.7H89.9z"/>
			</g>
		</g>
		<g class="st1">
			<g id="XMLID_456_" class="st2">
				<path class="st3" d="M33.6,130.2H23.3c-1.1,0-2-0.9-2-2c0-1.1,0.9-2,2-2h10.2c4.3,0,7.9-3.5,7.9-7.9c0-4.3-3.5-7.9-7.9-7.9H10.9
					c-1.1,0-2-0.9-2-2s0.9-2,2-2h22.6c6.5,0,11.9,5.3,11.9,11.9C45.5,124.9,40.1,130.2,33.6,130.2z"/>
			</g>
			<g id="XMLID_451_" class="st2">
				<path class="st3" d="M42,149.9H14.6c-1.1,0-2-0.9-2-2s0.9-2,2-2H42c4.3,0,7.9-3.5,7.9-7.9c0-4.3-3.5-7.9-7.9-7.9H23.7
					c-1.1,0-2-0.9-2-2c0-1.1,0.9-2,2-2H42c6.5,0,11.9,5.3,11.9,11.9C53.9,144.6,48.6,149.9,42,149.9z"/>
			</g>
			<g id="XMLID_458_" class="st2">
				<path class="st3" d="M22,161c-1.1,0-2-0.9-2-2V98c0-1.1,0.9-2,2-2s2,0.9,2,2v61C24,160.1,23.2,161,22,161z"/>
			</g>
			<g class="st2">
				<path class="st3" d="M31.3,109.9c-1.1,0-2-0.9-2-2V98c0-1.1,0.9-2,2-2c1.1,0,2,0.9,2,2v9.9C33.3,109,32.4,109.9,31.3,109.9z"/>
			</g>
			<g class="st2">
				<path class="st3" d="M31.3,160.5c-1.1,0-2-0.9-2-2v-9.9c0-1.1,0.9-2,2-2c1.1,0,2,0.9,2,2v9.9C33.3,159.6,32.4,160.5,31.3,160.5z
					"/>
			</g>
		</g>
		<g>
			<path class="st3" d="M127.9,240c-7.6,0-15.2-0.8-22.6-2.3c-7.2-1.5-14.3-3.7-21-6.5c-6.6-2.8-13-6.3-19-10.3
				c-5.9-4-11.5-8.6-16.6-13.7c-5.1-5.1-9.7-10.6-13.7-16.6s-7.5-12.4-10.3-19c-0.4-1,0-2.2,1.1-2.6c1-0.4,2.2,0,2.6,1.1
				c2.7,6.4,6.1,12.6,10,18.3s8.3,11.1,13.2,16s10.3,9.3,16,13.2c5.8,3.9,11.9,7.2,18.3,10c6.5,2.8,13.3,4.9,20.3,6.3
				c14.2,2.9,29.3,2.9,43.5,0c6.9-1.4,13.8-3.5,20.3-6.3c6.4-2.7,12.6-6.1,18.3-10s11.1-8.3,16-13.2s9.3-10.3,13.2-16
				c0.6-0.9,1.9-1.2,2.8-0.5c0.9,0.6,1.2,1.9,0.5,2.8c-4,5.9-8.6,11.5-13.7,16.6c-5.1,5.1-10.6,9.7-16.6,13.7s-12.4,7.5-19,10.3
				c-6.8,2.9-13.8,5.1-21,6.5C143.1,239.2,135.5,240,127.9,240z"/>
		</g>
		<g>
			<path class="st3" d="M229.3,87.2c-0.8,0-1.5-0.5-1.8-1.2c-2.7-6.4-6.1-12.6-10-18.3s-8.3-11.1-13.2-16s-10.3-9.3-16-13.2
				c-5.8-3.9-11.9-7.2-18.3-10c-6.5-2.8-13.3-4.9-20.3-6.3c-14.2-2.9-29.3-2.9-43.5,0c-6.9,1.4-13.8,3.5-20.3,6.3
				c-6.4,2.7-12.6,6.1-18.3,10s-11.1,8.3-16,13.2s-9.3,10.3-13.2,16c-0.6,0.9-1.9,1.2-2.8,0.5c-0.9-0.6-1.2-1.9-0.5-2.8
				c4-5.9,8.6-11.5,13.7-16.6s10.6-9.7,16.6-13.7s12.4-7.5,19-10.3c6.8-2.9,13.8-5.1,21-6.5c14.8-3,30.4-3,45.1,0
				c7.2,1.5,14.3,3.7,21,6.5c6.6,2.8,13,6.3,19,10.3c5.9,4,11.5,8.6,16.6,13.7s9.7,10.6,13.7,16.6s7.5,12.4,10.3,19
				c0.4,1,0,2.2-1.1,2.6C229.8,87.1,229.5,87.2,229.3,87.2z"/>
		</g>
	</g>
</g>
</svg>
