<?xml version="1.0" encoding="utf-8"?>
<!-- Generator: Adobe Illustrator 26.0.3, SVG Export Plug-In . SVG Version: 6.00 Build 0)  -->
<svg version="1.1" id="Layer_1" xmlns="http://www.w3.org/2000/svg" xmlns:xlink="http://www.w3.org/1999/xlink" x="0px" y="0px"
	 viewBox="0 0 231.4 218.3" style="enable-background:new 0 0 231.4 218.3;" xml:space="preserve">
<style type="text/css">
	.st0{fill:#FFFFFF;}
	.st1{fill:#F5F3ED;}
	.st2{fill:#EC5657;}
	.st3{fill:none;stroke:#240046;stroke-width:4;stroke-linecap:round;stroke-miterlimit:10;}
	.st4{fill:#EDEBE3;}
</style>
<g id="Layer_2_00000152264308146540635790000005346765507274518405_">
	<g id="icons">
		<path class="st0" d="M182.1,174.6L146.5,139l8.9-10l-44.6-42.9l-9.3-7.6c-3.9-3.2-9.6-3.3-13.6-0.1l-10.1,8.1
			c-1.4,1.1-3.3,1.1-4.7,0.1L61.6,79l-32.3,47l23.6,16.2l2.9,18.4l53.6,52.8c3.9,3.9,10.1,3.9,14,0c3.9-3.9,3.9-10.1,0-14l6.2,6.2
			c3.8,3.9,10.1,3.9,13.9,0.1c0,0,0,0,0.1-0.1l0,0c3.8-3.9,3.8-10.1,0-13.9l5.4,5.4c3.9,3.9,10.1,3.9,14,0c3.9-3.9,3.9-10.1,0-14
			l0,0l5.4,5.4c3.9,3.9,10.1,3.9,14,0c3.9-3.9,3.9-10.1,0-14l0,0L182.1,174.6z"/>
		<path class="st1" d="M118.3,208.4l-48.2-47.5c-3.5-3.4-5.8-7.9-6.5-12.8l-1.4-9c-0.2-1.2-0.9-2.3-1.9-3.1l-25.6-18l-5.4,7.9
			l23.6,16.2l2.9,18.4l53.6,52.8c3.9,3.9,10.1,3.9,14,0c0,0,0,0,0,0c0.6-0.6,1.2-1.4,1.6-2.1C122.4,211.2,120,210.2,118.3,208.4z"/>
		<path class="st1" d="M86.7,81.5l6.8-5.4c-2.1,0.2-4,1-5.7,2.3L83,82.2C84.3,82.6,85.7,82.3,86.7,81.5z"/>
		<path class="st0" d="M166.4,82l-12.6,8.1c-1.9,1.3-4.2,1.6-6.3,1l-15.2-4.5c-4.3-1.3-9-0.1-12.2,3.1L78,131.6l4.4,4.4
			c5.9,5.8,15.4,5.8,21.2-0.1l13.1-13.1c4-3.9,10.4-3.9,14.3,0l18.8,18.5l28.4,27.9l2.9-2.1c3.3-2.4,5.3-6.2,5.3-10.3V139l14.9-11
			L166.4,82z"/>
		<path class="st1" d="M186.5,156.8V139l14.9-10l-18-24.3l-7.8,6.5c-9.1,7.5-14.7,18.5-15.5,30.2l-0.7,9.6l18.8,18.2l2.9-2.1
			C184.5,164.8,186.5,160.9,186.5,156.8z"/>
		<circle class="st2" cx="115.3" cy="29" r="29"/>
		<polyline class="st3" points="103.1,30.8 110.4,38 128.6,19.7 		"/>
		<path class="st3" d="M147.5,139l35.6,35.6c3.8,3.9,3.8,10.1,0,13.9l0,0c-3.8,3.9-10.1,3.9-13.9,0.1c0,0,0,0-0.1-0.1L133.5,153"/>
		<path class="st3" d="M163.8,183.2c3.8,3.9,3.8,10.1,0,13.9l0,0c-3.8,3.9-10.1,3.9-13.9,0.1c0,0,0,0-0.1-0.1l-30.2-30.2"/>
		<path class="st3" d="M144.4,191.7c3.8,3.9,3.8,10.1,0,13.9l0,0c-3.8,3.9-10.1,3.9-13.9,0.1c0,0,0,0-0.1-0.1l-24.8-24.8"/>
		<path class="st3" d="M124.2,199.5c3.9,3.9,3.9,10.1,0,14c0,0,0,0,0,0l0,0c-3.9,3.9-10.1,3.9-14,0c0,0,0,0,0,0l-53.6-52.8
			l-2.9-18.4L39.2,132"/>
		<path class="st3" d="M149.8,141.3l-18.8-18.5c-4-3.9-10.4-3.9-14.3,0L103.6,136c-5.8,5.9-15.3,5.9-21.2,0.1l-4.4-4.4l42-41.9
			c3.2-3.2,7.9-4.4,12.2-3.1l15.2,4.5c2.2,0.6,4.5,0.3,6.3-1l6.4-4.3"/>
		<path class="st3" d="M178.2,169.2l2.9-2.1c3.3-2.4,5.3-6.2,5.3-10.3V139l6.9-5"/>
		<path class="st3" d="M71.6,85l2.4,1.7c1.4,1,3.3,1,4.7-0.1l10.1-8.1c4-3.2,9.6-3.2,13.6,0.1l9.3,7.6"/>
		<path class="st4" d="M69.9,68.1L51.5,54.7L2,125.8l18.4,13.4c2.7,1.9,6.4,1.2,8.3-1.5c0,0,0,0,0,0l42.7-61.3
			C73.2,73.6,72.5,70,69.9,68.1z"/>
		<path class="st1" d="M36,126.6c-1.9,2.8-5.8,3.5-8.6,1.5L9.5,115.1L2,125.8l18.4,13.4c2.7,1.9,6.4,1.2,8.3-1.5c0,0,0,0,0,0
			L36,126.6z"/>
		<path class="st4" d="M161.6,68.1l18.3-13.4l49.5,71.1l-18.4,13.4c-2.7,1.9-6.4,1.2-8.3-1.5c0,0,0,0,0,0l-42.7-61.3
			C158.2,73.7,158.8,70,161.6,68.1C161.5,68.1,161.5,68.1,161.6,68.1z"/>
		<path class="st1" d="M195.4,126.6c1.9,2.8,5.8,3.5,8.6,1.5l18-13.1l7.5,10.7l-18.4,13.4c-2.7,1.9-6.4,1.2-8.3-1.5c0,0,0,0,0,0
			L195.4,126.6z"/>
		<path class="st3" d="M2,125.8l18.4,13.4c2.7,1.9,6.4,1.2,8.3-1.5c0,0,0,0,0,0l42.7-61.3c1.8-2.7,1.2-6.4-1.5-8.3L51.5,54.7"/>
		<path class="st3" d="M229.4,125.8L211,139.2c-2.7,1.9-6.4,1.2-8.3-1.5c0,0,0,0,0,0L160,76.3c-1.8-2.7-1.2-6.4,1.5-8.3l18.4-13.4"
			/>
	</g>
</g>
</svg>
