<?xml version="1.0" encoding="utf-8"?>
<!-- Generator: Adobe Illustrator 25.4.1, SVG Export Plug-In . SVG Version: 6.00 Build 0)  -->
<svg version="1.1" id="icons" xmlns="http://www.w3.org/2000/svg" xmlns:xlink="http://www.w3.org/1999/xlink" x="0px" y="0px"
	 viewBox="0 0 256 256" style="enable-background:new 0 0 256 256;" xml:space="preserve">
<style type="text/css">
	.st0{fill:#F39191;}
	.st1{fill:#EDEBE3;}
	.st2{fill:#FE4E60;}
	.st3{fill:none;stroke:#240046;stroke-width:4;stroke-linecap:round;stroke-miterlimit:10;}
</style>
<g>
	<g>
		<path class="st0" d="M137.2,78.5l0-60c0,0,0,0,0,0c33.5,0,61,27.1,61,60H137.2z"/>
		<path class="st1" d="M60.2,221.5l31.2,14.3l91.8-11.9l49.1-43.4l0,0c-6.9-5-16.4-4.3-22.4,1.7l-25.5,25.1L96,218.2L60.2,196V221.5
			z"/>
		<path class="st2" d="M24.2,167.5h30.6c3,0,5.4,2.4,5.4,5.4v59.1c0,3-2.4,5.4-5.4,5.4H24.2V167.5z"/>
	</g>
	<g>
		<g>
			<path class="st3" d="M128.7,87h67c0,36.8-30.2,67-67,67s-67-30.2-67-67s30.2-67,67-67c0,0,0.1,0,0.1,0L128.7,87z"/>
			<line class="st3" x1="139.6" y1="31.3" x2="149.9" y2="21"/>
			<line class="st3" x1="142.2" y1="44.1" x2="161.3" y2="25"/>
			<line class="st3" x1="143.3" y1="58.5" x2="170.1" y2="31.8"/>
			<line class="st3" x1="145.1" y1="72.3" x2="179.9" y2="37.4"/>
			<line class="st3" x1="159.4" y1="73.4" x2="186.5" y2="46.3"/>
			<line class="st3" x1="174.1" y1="74.2" x2="191.3" y2="57"/>
			<line class="st3" x1="186.7" y1="77.1" x2="194.4" y2="69.4"/>
		</g>
		<path class="st3" d="M172.7,196v-6.2c0-6-4.8-10.8-10.8-10.8h-28.2l-34.4-7.8c-5.8-1.1-11.7-0.5-17.1,1.9l-11.9,5.3"/>
		<path class="st3" d="M131.7,198h52.6l26.2-22.9c4.9-4.3,12.4-4.2,17.1,0.3l4.1,3.8c0.4,0.4,0.4,1,0,1.4l-44.4,40.6
			c-2,1.8-4.4,2.9-7.1,3.3l-83.5,11.2c-3.9,0.4-7.9-0.3-11.4-2.1l-14.8-7.5"/>
		<path class="st3" d="M23.7,167h31.1c2.7,0,4.9,2.2,4.9,4.9v60.2c0,2.7-2.2,4.9-4.9,4.9H23.7"/>
	</g>
</g>
</svg>
