<?xml version="1.0" encoding="utf-8"?>
<!-- Generator: Adobe Illustrator 25.4.1, SVG Export Plug-In . SVG Version: 6.00 Build 0)  -->
<svg version="1.1" id="icons" xmlns="http://www.w3.org/2000/svg" xmlns:xlink="http://www.w3.org/1999/xlink" x="0px" y="0px"
	 viewBox="0 0 256 256" style="enable-background:new 0 0 256 256;" xml:space="preserve">
<style type="text/css">
	.st0{fill:#F8F6F2;}
	.st1{fill:#FE4E60;}
	.st2{fill:#F39191;}
	.st3{fill:none;stroke:#240046;stroke-width:4;stroke-linecap:round;stroke-miterlimit:10;}
</style>
<g>
	<g>
		<path class="st0" d="M188.2,116.6c-1.4,0-2.7,0.2-3.9,0.5c6.7,1.7,11.6,7.8,11.6,15s-4.9,13.2-11.6,15c1.2,0.3,2.6,0.5,3.9,0.5
			c8.6,0,15.5-6.9,15.5-15.5S196.7,116.6,188.2,116.6z"/>
		<path class="st0" d="M126.2,136.6c-1.4,0-2.7,0.2-3.9,0.5c6.7,1.7,11.6,7.8,11.6,15s-4.9,13.2-11.6,15c1.2,0.3,2.6,0.5,3.9,0.5
			c8.6,0,15.5-6.9,15.5-15.5S134.7,136.6,126.2,136.6z"/>
		<path class="st0" d="M66,117.1c-1.4,0-2.7,0.2-3.9,0.5c6.7,1.7,11.6,7.8,11.6,15s-4.9,13.2-11.6,15c1.2,0.3,2.6,0.5,3.9,0.5
			c8.6,0,15.5-6.9,15.5-15.5S74.5,117.1,66,117.1z"/>
		<path class="st1" d="M89.5,233.6v-46.9c0-4.6,2.7-8.8,6.8-10.7l9.4-4.4c2.8-1.3,6.2-0.5,8.1,2.1L125,189l16-16.5
			c1.9-2,4.9-2.6,7.4-1.4l8.6,3.8c5.2,2.3,8.5,7.4,8.5,13.1v45.7L89.5,233.6L89.5,233.6z"/>
		<path class="st2" d="M112.5,100.6V81.2c0,0-27-24-4.2-49.2c10-11.1,28.3-9.1,40.5-0.5c11.5,8.1,15.7,27.4-1.9,48.1l-0.4,21
			L112.5,100.6L112.5,100.6z"/>
	</g>
	<g>
		<circle class="st3" cx="128" cy="152.1" r="15"/>
		<path class="st3" d="M164,233.1v-46.5c0-5.7-3.7-10.8-9.2-12.5l-9.2-2.9c-1.2-0.4-2.5,0-3.3,0.9l-10.3,11"/>
		<path class="st3" d="M91,233.1v-46.5c0-5.7,3.7-10.8,9.2-12.5l9-2.8c1.3-0.4,2.8,0.1,3.6,1.2l15.2,20.6"/>
		<line class="st3" x1="107" y1="196.1" x2="107" y2="218.1"/>
		<line class="st3" x1="149" y1="196.1" x2="149" y2="218.1"/>
		<circle class="st3" cx="190" cy="132.1" r="15"/>
		<path class="st3" d="M226,213.1v-46.5c0-5.7-3.7-10.8-9.2-12.5l-9.2-2.9c-1.2-0.4-2.5,0-3.3,0.9l-10.3,11"/>
		<path class="st3" d="M189.6,171.9l-15.2-20.6c-0.8-1.1-2.3-1.6-3.6-1.2l-15.9-0.2"/>
		<line class="st3" x1="211" y1="176.1" x2="211" y2="198.1"/>
		<circle class="st3" cx="67" cy="132.1" r="15"/>
		<path class="st3" d="M30,213.1v-46.5c0-5.7,3.7-10.8,9.2-12.5l9.2-2.9c1.2-0.4,2.5,0,3.3,0.9L62,163"/>
		<path class="st3" d="M66.3,171.9l15.2-20.6c0.8-1.1,2.3-1.6,3.6-1.2L101,150"/>
		<line class="st3" x1="45" y1="176.1" x2="45" y2="198.1"/>
		<g>
			<path id="XMLID_36_" class="st3" d="M123,119.1v0.8c0,2.9,2.4,5.3,5.4,5.3h0.3c2.9,0,5.4-2.4,5.4-5.3v-0.8h7.3
				c1.5,0,2.9-0.9,3.5-2.3l0.2-0.5c0.6-1.4,1-3,1-4.6v-9.3c0-1.3-1.1-2.4-2.4-2.4h-29.3c-1.3,0-2.4,1.1-2.4,2.4v9.5
				c0,1.6,0.3,3.2,1,4.6l0.8,1.8"/>
			<path id="XMLID_35_" class="st3" d="M145,91.1v-5.9c0-3.9,1.7-7.7,4.6-10.4c5.8-5.5,9.4-13.3,9.4-22c0-21-21.3-37.1-43.6-27.7
				c-6.7,2.8-12,8.2-14.8,15c-5.6,13.6-1.7,26.8,7,35c2.8,2.7,4.3,6.5,4.3,10.4v5.7"/>
		</g>
		<polyline class="st3" points="125,39.9 119.5,56.1 135.9,56.1 130.4,74.2 		"/>
		<path class="st3" d="M84,57.1H72.6c-3.1,0-5.6,2.5-5.6,5.6v38.4"/>
		<path class="st3" d="M174,57.1h11.4c3.1,0,5.6,2.5,5.6,5.6v38.4"/>
	</g>
</g>
</svg>
