<?xml version="1.0" encoding="utf-8"?>
<!-- Generator: Adobe Illustrator 26.0.3, SVG Export Plug-In . SVG Version: 6.00 Build 0)  -->
<svg version="1.1" id="Layer_1" xmlns="http://www.w3.org/2000/svg" xmlns:xlink="http://www.w3.org/1999/xlink" x="0px" y="0px"
	 viewBox="0 0 232.8 217" style="enable-background:new 0 0 232.8 217;" xml:space="preserve">
<style type="text/css">
	.st0{fill:#FFFFFF;}
	.st1{fill:#EDEBE3;}
	.st2{fill:none;stroke:#240046;stroke-width:4;stroke-linecap:round;stroke-miterlimit:10;}
	.st3{fill:#F39191;}
	.st4{fill:#F9C8C8;}
	.st5{fill:#EC5657;}
	.st6{opacity:0.3;}
</style>
<g id="Layer_2_00000061443695425804582710000010760570344320165508_">
	<g id="icons">
		<path class="st0" d="M80.8,100.2v4.7c0,7.1-3.6,13.8-9.6,17.6l-7.2,4.7v8.2H12.3V90.2c0-6,2.7-11.6,7.3-15.4l2.6-3.3l55.3,8
			L80.8,100.2z"/>
		<path class="st1" d="M71.2,122.5c6-3.9,9.6-10.5,9.6-17.6v-4.7l-3.3-20.6L44,74.7l-0.1,0.1c-2.8,3.8-4.4,9.4-4.4,15.4v45.2H64
			v-8.2L71.2,122.5z"/>
		<path class="st2" d="M11.4,136.3V91.2c0-6,2.7-11.6,7.3-15.4"/>
		<path class="st0" d="M71.2,140.4c0-2.2-1.8-4-4.1-4H6.1c-2.2,0-4,1.8-4,4V215h69.1V140.4z"/>
		<path class="st1" d="M49.9,215h21.3v-74.6c0-2.2-1.8-4-4.1-4H49.9V215z"/>
		<path class="st2" d="M2,215v-74.6c0-2.2,1.8-4,4-4c0,0,0,0,0.1,0h61.1c2.2,0,4,1.8,4.1,4V215"/>
		<path class="st0" d="M152,100.2v4.7c0,7.1,3.6,13.8,9.6,17.6l7.2,4.7v8.2h51.7V90.2c0-6-2.7-11.6-7.3-15.4l-2.6-3.3l-55.3,8
			L152,100.2z"/>
		<path class="st1" d="M161.6,122.5c-6-3.9-9.6-10.5-9.6-17.6v-4.7l3.3-20.6l33.5-4.9l0.1,0.1c2.8,3.8,4.4,9.4,4.4,15.4v45.2h-24.5
			v-8.2L161.6,122.5z"/>
		<path class="st2" d="M221.5,136.3V91.2c0-6-2.7-11.6-7.4-15.4"/>
		<path class="st0" d="M161.6,140.4c0-2.2,1.8-4,4-4h61.1c2.2,0,4,1.8,4,4V215h-69.1V140.4z"/>
		<path class="st1" d="M182.9,215h-21.3v-74.6c0-2.2,1.8-4,4-4h17.2L182.9,215z"/>
		<path class="st2" d="M230.8,215v-74.6c0-2.2-1.8-4-4-4h-61.1c-2.2,0-4,1.8-4,4V215"/>
		<path class="st3" d="M34.5,2.9h62.9c5.1,0,9.3,4.2,9.3,9.3v67.7c0,5.1-4.2,9.3-9.3,9.3H34.5c-5.1,0-9.3-4.2-9.3-9.3V12.2
			C25.2,7,29.3,2.9,34.5,2.9z"/>
		<path d="M54.3,33.6c0.8-0.7,2-0.7,2.8,0l9.2,9.2l9.2-9.2c0.6-0.9,1.8-1.2,2.8-0.6c0.9,0.6,1.2,1.8,0.6,2.8
			c-0.1,0.2-0.3,0.4-0.6,0.6l-9.2,9.2l9.2,9.2c0.9,0.6,1.2,1.8,0.6,2.8c-0.6,0.9-1.8,1.2-2.8,0.6c-0.2-0.1-0.4-0.3-0.6-0.6l-9.2-9.2
			l-9.2,9.2c-0.9,0.6-2.2,0.4-2.8-0.6c-0.4-0.7-0.4-1.5,0-2.2l9.2-9.2l-9.2-9.2C53.6,35.6,53.6,34.4,54.3,33.6z"/>
		<path class="st4" d="M97.3,79.1H34.5c-5.1,0-9.3-4.2-9.3-9.3c0,0,0,0,0,0v10c0,5.1,4.2,9.3,9.3,9.3h0h62.9c5.1,0,9.3-4.1,9.3-9.3
			v-10C106.6,75,102.4,79.1,97.3,79.1z"/>
		<path class="st2" d="M28,86.5c-1.8-1.7-2.8-4.1-2.8-6.6V12.2c0-5.1,4.2-9.3,9.3-9.3l0,0h62.8c5.1,0,9.3,4.1,9.3,9.3v67.7
			c0,5.1-4.2,9.3-9.3,9.3H61.6"/>
		<path class="st5" d="M124.3,24.6V12c0-5.5,4.5-10,10-10h63.1c5.5,0,10,4.5,10.1,10v68c0,5.5-4.5,10-10.1,10h-63.1
			c-5.5,0-10-4.5-10-10C124.3,80,124.3,24.6,124.3,24.6z"/>
		<g class="st6">
			<path class="st1" d="M197.4,80h-63.1c-5.5,0-10-4.5-10-10v10c0,5.5,4.5,10,10,10h63.1c5.5,0,10-4.5,10.1-10V70
				C207.4,75.5,202.9,80,197.4,80z"/>
		</g>
		<path class="st2" d="M170.8,90h-36.5c-5.5,0-10-4.5-10-10V12c0-5.5,4.5-10,10-10h63.1c5.5,0,10,4.5,10.1,10v68
			c0,2.4-0.9,4.8-2.5,6.6"/>
		<path class="st0" d="M39.4,115.6v-9.9c0-1.7,0.8-3.3,2.1-4.4l11.8-9.6c4.2-3.4,4.8-9.6,1.5-13.8l-0.9-1.1
			c-0.3-0.4-0.8-0.5-1.2-0.2L29.7,92.4l-3.1,36C33.7,128.4,39.4,122.7,39.4,115.6C39.4,115.6,39.4,115.6,39.4,115.6z"/>
		<path class="st2" d="M26.6,128.4L26.6,128.4c7.1,0,12.8-5.7,12.8-12.8v-9.9c0-1.7,0.8-3.3,2.1-4.4l11.8-9.6
			c4.2-3.4,4.8-9.6,1.5-13.8l-0.9-1.1c-0.3-0.4-0.8-0.5-1.2-0.2L23,97.8"/>
		<path class="st0" d="M193.4,115.6v-9.9c0-1.7-0.8-3.3-2.1-4.4l-11.8-9.6c-4.2-3.4-4.9-9.6-1.5-13.8l0.9-1.1
			c0.3-0.4,0.8-0.5,1.2-0.2l22.9,15.8l3.1,36C199.2,128.4,193.4,122.7,193.4,115.6C193.4,115.6,193.4,115.6,193.4,115.6z"/>
		<path class="st2" d="M206.2,128.4L206.2,128.4c-7.1,0-12.8-5.7-12.8-12.8v-9.9c0-1.7-0.8-3.3-2.1-4.4l-11.8-9.6
			c-4.2-3.4-4.9-9.6-1.5-13.8l0.9-1.1c0.3-0.4,0.8-0.5,1.2-0.2l29.6,21.2"/>
		<path class="st2" d="M64,135.4v-8.2l7.2-4.7c6-3.9,9.6-10.5,9.6-17.6v-9.7"/>
		<path class="st2" d="M170.8,135.4v-8.2l-7.2-4.7c-6-3.9-9.6-10.5-9.6-17.6v-9.7"/>
		<polyline class="st2" points="158.4,45.8 165.6,53.1 183.9,34.8 		"/>
	</g>
</g>
</svg>
