<?xml version="1.0" encoding="utf-8"?>
<!-- Generator: Adobe Illustrator 26.0.3, SVG Export Plug-In . SVG Version: 6.00 Build 0)  -->
<svg version="1.1" id="Layer_1" xmlns="http://www.w3.org/2000/svg" xmlns:xlink="http://www.w3.org/1999/xlink" x="0px" y="0px"
	 viewBox="0 0 256 256" style="enable-background:new 0 0 256 256;" xml:space="preserve">
<style type="text/css">
	.st0{fill:#FFFFFF;}
	.st1{fill:#FFF8EB;}
	.st2{fill:#240046;}
	.st3{fill:#F39191;}
	.st4{fill:#EC5657;}
	.st5{fill:#EDEBE3;}
</style>
<g id="bg">
</g>
<g id="icons">
	<g>
		<g>
			<path class="st0" d="M92.9,234.2l1.1-1.7c5.6-8.9,8.6-19.1,8.6-29.6l0,0v-11.7h50.7v11.7l0,0c0,10.5,3,20.8,8.6,29.6l1.1,1.7
				H92.9z"/>
		</g>
		<g>
			<path class="st1" d="M158.6,226.4H97.4c-1,2.1-2.1,4.1-3.4,6.1l-1.1,1.7h70.2l-1.1-1.7C160.7,230.5,159.6,228.5,158.6,226.4z"/>
		</g>
		<g>
			<path class="st1" d="M214.9,192.2H41.1c-11.7,0-21.3-9.5-21.3-21.3V67.3c0-11.7,9.5-21.3,21.3-21.3h173.8
				c11.7,0,21.3,9.5,21.3,21.3v103.6C236.2,182.6,226.6,192.2,214.9,192.2z"/>
		</g>
		<g>
			<path class="st0" d="M19.8,171.4c0,11.4,9.3,20.7,20.7,20.7h174.9c11.4,0,20.7-9.3,20.7-20.7v-9.5H19.8V171.4z"/>
		</g>
		<g>
			<path class="st1" d="M215.4,185.3H40.6c-11.4,0-20.7-9.3-20.7-20.7v6.8c0,11.4,9.3,20.7,20.7,20.7h174.9
				c11.4,0,20.7-9.3,20.7-20.7v-6.8C236.2,176.1,226.9,185.3,215.4,185.3z"/>
		</g>
		<g>
			<path class="st0" d="M29.6,171.2V67c0-6.2,5-11.3,11.3-11.3h174.3c6.2,0,11.3,5,11.3,11.3v104.2c0,6.2-5,11.3-11.3,11.3H40.8
				C34.6,182.4,29.6,177.4,29.6,171.2z"/>
		</g>
		<g>
			<path class="st2" d="M214.9,194.2H41.1c-12.8,0-23.3-10.4-23.3-23.3V67.3C17.8,54.4,28.3,44,41.1,44c1.1,0,2,0.9,2,2s-0.9,2-2,2
				c-10.6,0-19.3,8.6-19.3,19.3v103.6c0,10.6,8.6,19.3,19.3,19.3h173.8c10.6,0,19.3-8.6,19.3-19.3V67.3c0-10.6-8.6-19.3-19.3-19.3
				c-1.1,0-2-0.9-2-2s0.9-2,2-2c12.8,0,23.3,10.4,23.3,23.3v103.6C238.2,183.7,227.7,194.2,214.9,194.2z"/>
		</g>
		<g>
			<path class="st2" d="M92.9,236.2c-0.4,0-0.7-0.1-1.1-0.3c-0.9-0.6-1.2-1.8-0.6-2.8l1.1-1.7c5.5-8.5,8.3-18.4,8.3-28.6
				c0-1.1,0.9-2,2-2s2,0.9,2,2c0,10.9-3.1,21.5-9,30.7l-1.1,1.7C94.2,235.9,93.6,236.2,92.9,236.2z"/>
		</g>
		<g>
			<path class="st2" d="M163.1,236.2c-0.7,0-1.3-0.3-1.7-0.9l-1.1-1.7c-5.9-9.2-9-19.8-9-30.7c0-1.1,0.9-2,2-2s2,0.9,2,2
				c0,10.1,2.9,20,8.3,28.6l1.1,1.7c0.6,0.9,0.3,2.2-0.6,2.8C163.8,236.1,163.4,236.2,163.1,236.2z"/>
		</g>
		<g>
			<path class="st2" d="M178.7,238H77.3c-1.1,0-2-0.9-2-2s0.9-2,2-2h101.4c1.1,0,2,0.9,2,2S179.8,238,178.7,238z"/>
		</g>
		<g>
			<path class="st0" d="M206.2,162h-157V40.1c0-11.1,9-20.1,20.1-20.1h116.8c11.1,0,20.1,9,20.1,20.1L206.2,162L206.2,162z"/>
		</g>
		<g>
			<rect x="49.3" y="154" class="st1" width="157" height="8"/>
		</g>
		<g>
			<path class="st2" d="M199.1,45.4H56.4c-1.1,0-2-0.9-2-2s0.9-2,2-2H199c1.1,0,2,0.9,2,2S200.2,45.4,199.1,45.4z"/>
		</g>
		<g>
			<path class="st3" d="M190.6,34.8h-77.7c-1.1,0-2-0.9-2-2c0-1.1,0.9-2,2-2h77.7c1.1,0,2,0.9,2,2C192.6,33.9,191.7,34.8,190.6,34.8
				z"/>
		</g>
		<g>
			<path class="st2" d="M190.6,84.7h-55.1c-1.1,0-2-0.9-2-2s0.9-2,2-2h55.1c1.1,0,2,0.9,2,2S191.7,84.7,190.6,84.7z"/>
		</g>
		<g>
			<path class="st2" d="M190.6,95.3h-55.1c-1.1,0-2-0.9-2-2s0.9-2,2-2h55.1c1.1,0,2,0.9,2,2S191.7,95.3,190.6,95.3z"/>
		</g>
		<g>
			<path class="st2" d="M123.6,127.7H68.5c-1.1,0-2-0.9-2-2s0.9-2,2-2h55.1c1.1,0,2,0.9,2,2S124.7,127.7,123.6,127.7z"/>
		</g>
		<g>
			<path class="st2" d="M191,127.7h-36c-1.1,0-2-0.9-2-2s0.9-2,2-2h36c1.1,0,2,0.9,2,2S192.1,127.7,191,127.7z"/>
		</g>
		<g>
			<path class="st2" d="M145,127.7h-11c-1.1,0-2-0.9-2-2s0.9-2,2-2h11c1.1,0,2,0.9,2,2S146.1,127.7,145,127.7z"/>
		</g>
		<g>
			<path class="st2" d="M137,139.3H68.5c-1.1,0-2-0.9-2-2s0.9-2,2-2H137c1.1,0,2,0.9,2,2C139,138.4,138.1,139.3,137,139.3z"/>
		</g>
		<g>
			<path class="st2" d="M163.4,105.9h-27.9c-1.1,0-2-0.9-2-2s0.9-2,2-2h27.9c1.1,0,2,0.9,2,2S164.5,105.9,163.4,105.9z"/>
		</g>
		<g>
			<path class="st4" d="M69.8,32.8c0,2.1-1.7,3.8-3.8,3.8c-2.1,0-3.8-1.7-3.8-3.8S63.9,29,66,29C68.1,29.1,69.8,30.7,69.8,32.8z"/>
		</g>
		<g>
			<circle class="st4" cx="81.2" cy="32.8" r="3.8"/>
		</g>
		<g>
			<circle class="st4" cx="96.2" cy="32.8" r="3.8"/>
		</g>
		<g>
			<path class="st5" d="M114.3,112.8H72.1c-5,0-9.1-4.1-9.1-9.1V61.5c0-5,4.1-9.1,9.1-9.1h42.2c5,0,9.1,4.1,9.1,9.1v42.2
				C123.4,108.7,119.3,112.8,114.3,112.8z"/>
		</g>
		<g>
			<path class="st2" d="M206.2,155c-1.1,0-2-0.9-2-2V40.1c0-10-8.1-18.1-18.1-18.1H69.3c-10,0-18.1,8.1-18.1,18.1V153
				c0,1.1-0.9,2-2,2s-2-0.9-2-2V40.1c0-12.2,9.9-22.1,22.1-22.1h116.8c12.2,0,22.1,9.9,22.1,22.1V153
				C208.2,154.1,207.3,155,206.2,155z"/>
		</g>
		<g>
			<path class="st2" d="M236.2,163.9H20.8c-1.1,0-2-0.9-2-2s0.9-2,2-2h215.3c1.1,0,2,0.9,2,2S237.3,163.9,236.2,163.9z"/>
		</g>
		<g>
			<g>
				<path class="st2" d="M93.1,80.8c-6.5,0-11.7-5.3-11.7-11.7c0-6.5,5.3-11.7,11.7-11.7c6.5,0,11.7,5.3,11.7,11.7
					C104.9,75.6,99.6,80.8,93.1,80.8z M93.1,61.4c-4.3,0-7.7,3.5-7.7,7.7c0,4.3,3.5,7.7,7.7,7.7c4.3,0,7.7-3.5,7.7-7.7
					C100.9,64.8,97.4,61.4,93.1,61.4z"/>
			</g>
			<g>
				<path class="st2" d="M111.6,106.2c-1.1,0-2-0.9-2-2V91.1c0-2-1.3-3.8-3.2-4.4l-4.4-1.4l-5,5.3c-0.8,0.8-2,0.8-2.8,0.1
					c-0.8-0.8-0.8-2-0.1-2.8l5.2-5.5c0.9-1,2.4-1.4,3.7-1l4.6,1.5c3.6,1.1,6,4.4,6,8.2v13.1C113.6,105.3,112.7,106.2,111.6,106.2z"
					/>
			</g>
			<g>
				<path class="st2" d="M93.6,107L93.6,107c-1.1,0-2-0.9-2-2l0.1-10l-7.1-9.6l-4.3,1.4c-1.9,0.6-3.2,2.4-3.2,4.4v13.1
					c0,1.1-0.9,2-2,2s-2-0.9-2-2V91.1c0-3.8,2.4-7.1,6-8.2l4.6-1.4c1.5-0.5,3.1,0.1,4,1.3l8.1,10.9L95.6,105
					C95.6,106.1,94.7,107,93.6,107z"/>
			</g>
		</g>
		<g>
			<path class="st5" d="M172.4,67h-34.9c-2,0-3.6-1.6-3.6-3.6v-3.9c0-2,1.6-3.6,3.6-3.6h34.9c2,0,3.6,1.6,3.6,3.6v3.9
				C176,65.4,174.4,67,172.4,67z"/>
		</g>
	</g>
</g>
</svg>
