<?xml version="1.0" encoding="utf-8"?>
<!-- Generator: Adobe Illustrator 25.4.1, SVG Export Plug-In . SVG Version: 6.00 Build 0)  -->
<svg version="1.1" id="icons" xmlns="http://www.w3.org/2000/svg" xmlns:xlink="http://www.w3.org/1999/xlink" x="0px" y="0px"
	 viewBox="0 0 256 256" style="enable-background:new 0 0 256 256;" xml:space="preserve">
<style type="text/css">
	.st0{fill:#F39191;}
	.st1{fill:#EC5657;}
	.st2{fill:#EDEBE3;}
	.st3{fill:none;stroke:#240046;stroke-width:4;stroke-linecap:round;stroke-miterlimit:10;}
</style>
<g>
	<g>
		<circle class="st0" cx="90.2" cy="73.2" r="6.5"/>
		<circle class="st1" cx="124.2" cy="105.2" r="6.5"/>
		<path class="st2" d="M223.1,42.8c1.7,2.9,2.7,6.3,2.7,10v97.9c0,11.1-9,20-20,20H28.8c-2.2,0-4.4-0.4-6.4-1c3.5,6,9.9,10,17.3,10
			h176.9c11.1,0,20-9,20-20V61.8C236.8,52.9,231,45.5,223.1,42.8z"/>
		<path class="st2" d="M149.8,180.8V196c0,8.3,4.6,16,11.9,20l11,6.1c1.9,1.1,3.1,3.1,3.1,5.2l0,8.4h-48l-0.5-56L149.8,180.8z"/>
	</g>
	<g>
		<path class="st3" d="M171.2,41.2H39.8c-11.4,0-20.6,9.2-20.6,20.5v97c0,11.3,9.2,20.5,20.5,20.5h175.9c11.3,0,20.5-9.2,20.5-20.5
			v-97c0-11.3-9.2-20.5-20.6-20.5h-6.4"/>
		<line class="st3" x1="19.2" y1="151.2" x2="214.2" y2="151.2"/>
		<path class="st3" d="M102.2,191.2v4.1c0,7.1-3.6,13.6-9.6,17.4l-16.5,10.5c-0.6,0.4-1,1-1,1.8v10.2h101v-10.2c0-0.7-0.4-1.4-1-1.8
			l-16.4-10.5c-6-3.8-9.6-10.4-9.6-17.5v-4.1"/>
		<line class="st3" x1="76.2" y1="223.2" x2="127.2" y2="223.2"/>
		<polyline class="st3" points="199.2,20.2 210.2,20.2 210.2,31.2 		"/>
		<circle class="st3" cx="90.8" cy="73.8" r="7.5"/>
		<circle class="st3" cx="124.8" cy="105.8" r="7.5"/>
		<line class="st3" x1="130.2" y1="100" x2="204.5" y2="25.7"/>
		<line class="st3" x1="97.1" y1="80.3" x2="118.4" y2="101.3"/>
		<line class="st3" x1="42.6" y1="121.4" x2="83.5" y2="80.5"/>
		<line class="st3" x1="57.2" y1="109.2" x2="57.2" y2="130.2"/>
		<line class="st3" x1="73.2" y1="92.9" x2="73.2" y2="130.2"/>
		<line class="st3" x1="90.2" y1="81.2" x2="90.2" y2="130.2"/>
		<line class="st3" x1="107.2" y1="91.2" x2="107.2" y2="130.2"/>
		<line class="st3" x1="124.2" y1="116.2" x2="124.2" y2="130.2"/>
		<line class="st3" x1="141.2" y1="91.2" x2="141.2" y2="130.2"/>
		<line class="st3" x1="158.2" y1="73.2" x2="158.2" y2="130.2"/>
		<line class="st3" x1="175.2" y1="56.3" x2="175.2" y2="130.2"/>
		<line class="st3" x1="191.2" y1="41.2" x2="191.2" y2="130.2"/>
	</g>
</g>
</svg>
