<?xml version="1.0" encoding="utf-8"?>
<!-- Generator: Adobe Illustrator 26.0.3, SVG Export Plug-In . SVG Version: 6.00 Build 0)  -->
<svg version="1.1" id="icons" xmlns="http://www.w3.org/2000/svg" xmlns:xlink="http://www.w3.org/1999/xlink" x="0px" y="0px"
	 viewBox="0 0 256 256" style="enable-background:new 0 0 256 256;" xml:space="preserve">
<style type="text/css">
	.st0{fill:#FFFFFF;}
	.st1{fill:#EDEBE3;}
	.st2{fill:#F5F3ED;}
	.st3{fill:#240046;}
	.st4{fill:#EC5657;}
	.st5{fill:#E93535;}
</style>
<g>
	<g>
		<path class="st0" d="M159.8,169.7v4.7c0,7.1,3.6,13.8,9.6,17.6l7.3,4.7v8.2h51.7v-45.2c0-6-2.7-11.6-7.3-15.4l-2.6-3.3l-55.3,8
			L159.8,169.7z"/>
	</g>
	<g>
		<path class="st1" d="M169.3,192c-6-3.9-9.6-10.5-9.6-17.6v-4.7l3.3-20.6l33.5-4.9l0.1,0.1c2.8,3.7,4.4,9.4,4.4,15.4v45.2h-24.5
			v-8.2L169.3,192z"/>
	</g>
	<g>
		<path class="st0" d="M96.2,169.7v4.7c0,7.1-3.6,13.8-9.6,17.6l-7.3,4.7v8.2H27.7v-45.2c0-6,2.7-11.6,7.3-15.4l2.6-3.3l55.3,8
			L96.2,169.7z"/>
	</g>
	<g>
		<path class="st1" d="M86.7,192c6-3.9,9.6-10.5,9.6-17.6v-4.7L93,149.1l-33.5-4.9l-0.1,0.1c-2.8,3.7-4.4,9.4-4.4,15.4v45.2h24.5
			v-8.2L86.7,192z"/>
	</g>
	<g>
		<path class="st0" d="M38.4,172.7V93.3c0-5.5,4.5-10,10-10h158.4c5.5,0,10,4.5,10,10v79.3c0,5.5-4.5,10-10,10H48.4
			C42.9,182.7,38.4,178.2,38.4,172.7z"/>
	</g>
	<g>
		<path class="st2" d="M53.6,91.8h148c3.7,0,6.8,3,6.8,6.8v68.9c0,3.7-3,6.8-6.8,6.8h-148c-3.7,0-6.8-3-6.8-6.8V98.6
			C46.9,94.8,49.9,91.8,53.6,91.8z"/>
	</g>
	<g>
		<path class="st3" d="M203.3,146c-1.1,0-2-0.9-2-2v-22c0-1.1,0.9-2,2-2s2,0.9,2,2v22C205.3,145.1,204.4,146,203.3,146z"/>
	</g>
	<g>
		<path class="st3" d="M195.3,184.7H62c-1.1,0-2-0.9-2-2s0.9-2,2-2h133.3c1.1,0,2,0.9,2,2S196.4,184.7,195.3,184.7z"/>
	</g>
	<g>
		<path class="st3" d="M38.4,162.7c-1.1,0-2-0.9-2-2V91.8c0-5.8,4.7-10.5,10.5-10.5h161.5c5.8,0,10.5,4.7,10.5,10.5v67.1
			c0,1.1-0.9,2-2,2s-2-0.9-2-2V91.8c0-3.6-2.9-6.5-6.5-6.5H46.9c-3.6,0-6.5,2.9-6.5,6.5v68.9C40.4,161.8,39.5,162.7,38.4,162.7z"/>
	</g>
	<g>
		<path class="st3" d="M26.8,207.8c-1.1,0-2-0.9-2-2v-45.2c0-6.6,2.9-12.8,8.1-16.9c0.9-0.7,2.1-0.6,2.8,0.3
			c0.7,0.9,0.6,2.1-0.3,2.8c-4.2,3.4-6.6,8.4-6.6,13.8v45.2C28.8,206.9,27.9,207.8,26.8,207.8z"/>
	</g>
	<g>
		<path class="st3" d="M78.5,207.8c-1.1,0-2-0.9-2-2v-9.3l8.2-5.3c1.8-1.1,3.3-2.6,4.6-4.2c0.7-0.9,1.9-1,2.8-0.3s1,1.9,0.3,2.8
			c-1.6,2-3.5,3.7-5.6,5.1l-6.3,4.1v7.1C80.5,206.9,79.6,207.8,78.5,207.8z"/>
	</g>
	<g>
		<path class="st0" d="M86.6,209.9c0-2.2-1.8-4-4-4H21.5c-2.2,0-4,1.8-4,4v24.6h69.2L86.6,209.9L86.6,209.9z"/>
	</g>
	<g>
		<path class="st1" d="M65.3,234.5h21.3v-24.6c0-2.2-1.8-4-4-4H65.3V234.5z"/>
	</g>
	<g>
		<path class="st3" d="M86.6,236.5c-1.1,0-2-0.9-2-2v-24.6c0-1.1-0.9-2-2-2H21.5c-1.1,0-2,0.9-2,2v24.6c0,1.1-0.9,2-2,2s-2-0.9-2-2
			v-24.6c0-3.3,2.7-6,6-6h61.1c3.3,0,6,2.7,6,6v24.6C88.6,235.6,87.7,236.5,86.6,236.5z"/>
	</g>
	<g>
		<path class="st0" d="M54.8,185.1v-9.9c0-1.7,0.8-3.3,2.1-4.4l11.8-9.6c4.2-3.4,4.9-9.6,1.5-13.8l-0.9-1.1
			c-0.3-0.4-0.8-0.5-1.2-0.2l-22.9,15.8l-3.1,36C49.1,197.9,54.8,192.2,54.8,185.1z"/>
	</g>
	<g>
		<path class="st3" d="M42,199.9c-1.1,0-2-0.9-2-2s0.9-2,2-2c6,0,10.8-4.8,10.8-10.8v-9.9c0-2.3,1-4.5,2.8-5.9l11.8-9.6
			c3.3-2.7,3.9-7.7,1.2-11l-0.3-0.3L39.5,169c-0.9,0.6-2.1,0.4-2.8-0.5c-0.6-0.9-0.4-2.1,0.5-2.8l29.6-21.2c1.3-0.9,3-0.6,4,0.6
			l0.9,1.1c4,5.1,3.2,12.5-1.8,16.6l-11.8,9.6c-0.8,0.7-1.3,1.7-1.3,2.8v9.9C56.8,193.3,50.2,199.9,42,199.9z"/>
	</g>
	<g>
		<path class="st3" d="M229.2,207.8c-1.1,0-2-0.9-2-2v-45.2c0-5.4-2.4-10.4-6.6-13.8c-0.9-0.7-1-2-0.3-2.8c0.7-0.9,2-1,2.8-0.3
			c5.1,4.1,8.1,10.3,8.1,16.9v45.2C231.2,206.9,230.3,207.8,229.2,207.8z"/>
	</g>
	<g>
		<path class="st3" d="M177.5,207.8c-1.1,0-2-0.9-2-2v-7.1l-6.3-4.1c-2.1-1.4-4-3.1-5.6-5.1c-0.7-0.9-0.5-2.1,0.3-2.8
			c0.9-0.7,2.1-0.5,2.8,0.3c1.3,1.7,2.9,3.1,4.6,4.2l8.2,5.3v9.3C179.5,206.9,178.6,207.8,177.5,207.8z"/>
	</g>
	<g>
		<path class="st0" d="M169.4,209.9c0-2.2,1.8-4,4-4h61.1c2.2,0,4,1.8,4,4v24.6h-69.2L169.4,209.9L169.4,209.9z"/>
	</g>
	<g>
		<path class="st1" d="M190.7,234.5h-21.3v-24.6c0-2.2,1.8-4,4-4h17.2L190.7,234.5z"/>
	</g>
	<g>
		<path class="st3" d="M238.6,236.5c-1.1,0-2-0.9-2-2v-24.6c0-1.1-0.9-2-2-2h-61.1c-1.1,0-2,0.9-2,2v24.6c0,1.1-0.9,2-2,2
			s-2-0.9-2-2v-24.6c0-3.3,2.7-6,6-6h61.1c3.3,0,6,2.7,6,6v24.6C240.6,235.6,239.7,236.5,238.6,236.5z"/>
	</g>
	<g>
		<path class="st0" d="M201.2,185.1v-9.9c0-1.7-0.8-3.3-2.1-4.4l-11.8-9.6c-4.2-3.4-4.9-9.6-1.5-13.8l0.9-1.1
			c0.3-0.4,0.8-0.5,1.2-0.2l22.9,15.8l3.1,36C206.9,197.9,201.2,192.2,201.2,185.1z"/>
	</g>
	<g>
		<path class="st3" d="M214,199.9c-8.2,0-14.8-6.6-14.8-14.8v-9.9c0-1.1-0.5-2.1-1.3-2.8l-11.8-9.6c-5-4.1-5.8-11.5-1.8-16.6
			l0.9-1.1c1-1.2,2.7-1.5,4-0.6l29.6,21.2c0.9,0.6,1.1,1.9,0.5,2.8c-0.6,0.9-1.9,1.1-2.8,0.5l-28.8-20.6l-0.3,0.3
			c-2.7,3.4-2.1,8.3,1.2,11l11.8,9.6c1.8,1.5,2.8,3.6,2.8,5.9v9.9c0,6,4.8,10.8,10.8,10.8c1.1,0,2,0.9,2,2
			C216,199,215.1,199.9,214,199.9z"/>
	</g>
	<g>
		<path class="st0" d="M156.1,150.7H98c-8.4,0-15.3-6.8-15.3-15.3v-2.2c0-8.4,6.8-15.3,15.3-15.3h58.1c8.4,0,15.3,6.8,15.3,15.3v2.2
			C171.4,143.9,164.5,150.7,156.1,150.7z"/>
	</g>
	<g>
		<path class="st3" d="M101.4,135.4h-2.2c-1.1,0-2-0.9-2-2s0.9-2,2-2h2.2c1.1,0,2,0.9,2,2S102.5,135.4,101.4,135.4z"/>
	</g>
	<g>
		<path class="st3" d="M128.3,135.4h-2.2c-1.1,0-2-0.9-2-2s0.9-2,2-2h2.2c1.1,0,2,0.9,2,2S129.4,135.4,128.3,135.4z"/>
	</g>
	<g>
		<path class="st3" d="M155.3,135.4h-2.2c-1.1,0-2-0.9-2-2s0.9-2,2-2h2.2c1.1,0,2,0.9,2,2S156.4,135.4,155.3,135.4z"/>
	</g>
	<g>
		<path class="st0" d="M203.3,70.6H51.8c-7.4,0-13.3-6-13.3-13.3V34.8c0-7.4,6-13.3,13.3-13.3h151.5c7.4,0,13.3,6,13.3,13.3v22.4
			C216.6,64.6,210.6,70.6,203.3,70.6z"/>
	</g>
	<g>
		<path class="st3" d="M203.3,72.6H51.8c-8.5,0-15.3-6.9-15.3-15.3V34.8c0-8.5,6.9-15.3,15.3-15.3h151.5c8.5,0,15.3,6.9,15.3,15.3
			v22.4C218.6,65.7,211.7,72.6,203.3,72.6z M51.8,23.5c-6.2,0-11.3,5.1-11.3,11.3v22.4c0,6.2,5.1,11.3,11.3,11.3h151.5
			c6.2,0,11.3-5.1,11.3-11.3V34.8c0-6.2-5.1-11.3-11.3-11.3H51.8z"/>
	</g>
	<g>
		<ellipse class="st0" cx="70.2" cy="46.5" rx="16.4" ry="16.4"/>
	</g>
	<g>
		<path class="st2" d="M73.1,30.4c4.1,3,6.7,7.8,6.7,13.2c0,9-7.3,16.4-16.4,16.4c-1,0-2-0.1-2.9-0.3c2.7,2,6,3.2,9.6,3.2
			c9,0,16.4-7.3,16.4-16.4C86.6,38.5,80.8,31.8,73.1,30.4z"/>
	</g>
	<g>
		<path class="st3" d="M70.2,64.9c-10.1,0-18.4-8.2-18.4-18.4S60,28.1,70.2,28.1s18.4,8.2,18.4,18.4S80.4,64.9,70.2,64.9z
			 M70.2,32.2c-7.9,0-14.4,6.4-14.4,14.4S62.2,61,70.2,61s14.4-6.4,14.4-14.4S78.2,32.2,70.2,32.2z"/>
	</g>
	<g>
		<path class="st3" d="M64.8,45.6h-2.2c-1.1,0-2-0.9-2-2s0.9-2,2-2h2.2c1.1,0,2,0.9,2,2C66.8,44.8,65.9,45.6,64.8,45.6z"/>
	</g>
	<g>
		<path class="st3" d="M77.3,45.6h-2.2c-1.1,0-2-0.9-2-2s0.9-2,2-2h2.2c1.1,0,2,0.9,2,2C79.3,44.8,78.4,45.6,77.3,45.6z"/>
	</g>
	<g>
		<path class="st3" d="M70.2,55.3c-2.1,0-4-0.8-5.5-2.3c-0.8-0.8-0.8-2,0-2.8c0.8-0.8,2-0.8,2.8,0c1.4,1.4,3.9,1.4,5.3,0
			c0.8-0.8,2-0.8,2.8,0s0.8,2,0,2.8C74.3,54.5,72.3,55.3,70.2,55.3z"/>
	</g>
	<g>
		<ellipse class="st4" cx="128" cy="46.5" rx="16.4" ry="16.4"/>
	</g>
	<g>
		<path class="st5" d="M130.9,30.4c4.1,3,6.7,7.8,6.7,13.2c0,9-7.3,16.4-16.4,16.4c-1,0-2-0.1-2.9-0.3c2.7,2,6,3.2,9.6,3.2
			c9,0,16.4-7.3,16.4-16.4C144.4,38.5,138.6,31.8,130.9,30.4z"/>
	</g>
	<g>
		<path class="st3" d="M128,64.9c-10.1,0-18.4-8.2-18.4-18.4s8.2-18.4,18.4-18.4s18.4,8.2,18.4,18.4S138.2,64.9,128,64.9z M128,32.2
			c-7.9,0-14.4,6.4-14.4,14.4S120,61,128,61c7.9,0,14.4-6.4,14.4-14.4S135.9,32.2,128,32.2z"/>
	</g>
	<g>
		<path class="st3" d="M122.6,45.6h-2.2c-1.1,0-2-0.9-2-2s0.9-2,2-2h2.2c1.1,0,2,0.9,2,2C124.6,44.8,123.7,45.6,122.6,45.6z"/>
	</g>
	<g>
		<path class="st3" d="M135.1,45.6h-2.2c-1.1,0-2-0.9-2-2s0.9-2,2-2h2.2c1.1,0,2,0.9,2,2C137.1,44.8,136.2,45.6,135.1,45.6z"/>
	</g>
	<g>
		<ellipse class="st0" cx="185.8" cy="46.5" rx="16.4" ry="16.4"/>
	</g>
	<g>
		<path class="st2" d="M188.7,30.4c4.1,3,6.7,7.8,6.7,13.2c0,9-7.3,16.4-16.4,16.4c-1,0-2-0.1-2.9-0.3c2.7,2,6,3.2,9.6,3.2
			c9,0,16.4-7.3,16.4-16.4C202.2,38.5,196.4,31.8,188.7,30.4z"/>
	</g>
	<g>
		<path class="st3" d="M185.8,64.9c-10.1,0-18.4-8.2-18.4-18.4s8.2-18.4,18.4-18.4c10.1,0,18.4,8.2,18.4,18.4S195.9,64.9,185.8,64.9
			z M185.8,32.2c-7.9,0-14.4,6.4-14.4,14.4S177.8,61,185.8,61c7.9,0,14.4-6.4,14.4-14.4S193.7,32.2,185.8,32.2z"/>
	</g>
	<g>
		<path class="st3" d="M180.3,45.6h-2.2c-1.1,0-2-0.9-2-2s0.9-2,2-2h2.2c1.1,0,2,0.9,2,2C182.3,44.8,181.4,45.6,180.3,45.6z"/>
	</g>
	<g>
		<path class="st3" d="M192.9,45.6h-2.2c-1.1,0-2-0.9-2-2s0.9-2,2-2h2.2c1.1,0,2,0.9,2,2C194.9,44.8,194,45.6,192.9,45.6z"/>
	</g>
	<g>
		<path class="st3" d="M189.9,55.3c-0.5,0-1-0.2-1.4-0.6c-1.4-1.4-3.9-1.4-5.3,0c-0.8,0.8-2,0.8-2.8,0s-0.8-2,0-2.8
			c1.5-1.5,3.4-2.3,5.5-2.3s4,0.8,5.5,2.3c0.8,0.8,0.8,2,0,2.8C190.9,55.1,190.4,55.3,189.9,55.3z"/>
	</g>
	<g>
		<path class="st3" d="M132.1,54.1h-8.2c-1.1,0-2-0.9-2-2s0.9-2,2-2h8.2c1.1,0,2,0.9,2,2S133.2,54.1,132.1,54.1z"/>
	</g>
</g>
</svg>
