<?xml version="1.0" encoding="utf-8"?>
<!-- Generator: Adobe Illustrator 26.0.3, SVG Export Plug-In . SVG Version: 6.00 Build 0)  -->
<svg version="1.1" id="Layer_1" xmlns="http://www.w3.org/2000/svg" xmlns:xlink="http://www.w3.org/1999/xlink" x="0px" y="0px"
	 viewBox="0 0 197.1 197.1" style="enable-background:new 0 0 197.1 197.1;" xml:space="preserve">
<style type="text/css">
	.st0{fill:#EC5657;}
	.st1{fill:#F5F3ED;}
	.st2{fill:none;stroke:#240046;stroke-width:4;stroke-linecap:round;stroke-miterlimit:10;}
</style>
<g id="Layer_2_00000178900823386515900230000007356905215411897525_">
	<g id="icons">
		<path class="st0" d="M112.1,67.7L98.8,2.2c0-0.1-0.2-0.2-0.3-0.2c-0.1,0-0.2,0.1-0.2,0.2L84.6,69.4L55.9,55.5
			c-0.5-0.3-1.2-0.2-1.5,0.3c-0.2,0.4-0.2,0.8,0,1.2L67.7,85L2.2,98.3c-0.1,0-0.2,0.2-0.2,0.3c0,0.1,0.1,0.2,0.2,0.2l67.2,13.7
			l-13.8,28.7c-0.3,0.5-0.2,1.2,0.3,1.5c0.4,0.2,0.8,0.2,1.2,0L85,129.4l13.3,65.4c0,0.1,0.2,0.2,0.3,0.2c0.1,0,0.2-0.1,0.2-0.2
			l13.7-67.2l28.6,13.8c0.5,0.3,1.2,0.2,1.5-0.3c0.2-0.4,0.2-0.8,0-1.2l-13.3-27.9l65.4-13.3c0.1,0,0.2-0.2,0.2-0.3
			c0-0.1-0.1-0.2-0.2-0.2l-67.2-13.7l13.8-28.7c0.3-0.5,0.1-1.2-0.4-1.5c-0.3-0.2-0.8-0.2-1.1,0L112.1,67.7z"/>
		<path class="st1" d="M87.8,98L98,87.8c0.3-0.3,0.8-0.3,1,0L109.3,98c0.3,0.3,0.3,0.8,0,1l-10.2,10.2c-0.3,0.3-0.8,0.3-1,0
			L87.8,99.1C87.5,98.8,87.5,98.3,87.8,98z"/>
		<path class="st2" d="M112.1,67.7L98.8,2.2c0-0.1-0.2-0.2-0.3-0.2c-0.1,0-0.2,0.1-0.2,0.2L84.6,69.4L55.9,55.5
			c-0.5-0.3-1.2-0.2-1.5,0.3c-0.2,0.4-0.2,0.8,0,1.2L67.7,85L2.2,98.3c-0.1,0-0.2,0.2-0.2,0.3c0,0.1,0.1,0.2,0.2,0.2l67.2,13.7
			l-13.8,28.7c-0.3,0.5-0.2,1.2,0.3,1.5c0.4,0.2,0.8,0.2,1.2,0L85,129.4l13.3,65.4c0,0.1,0.2,0.2,0.3,0.2c0.1,0,0.2-0.1,0.2-0.2
			l13.7-67.2l28.6,13.8c0.5,0.3,1.2,0.2,1.5-0.3c0.2-0.4,0.2-0.8,0-1.2l-13.3-27.9l65.4-13.3c0.1,0,0.2-0.2,0.2-0.3
			c0-0.1-0.1-0.2-0.2-0.2l-67.2-13.7l13.8-28.7c0.3-0.5,0.1-1.2-0.4-1.5c-0.3-0.2-0.8-0.2-1.1,0L112.1,67.7z"/>
		<path class="st2" d="M87.8,98L98,87.8c0.3-0.3,0.8-0.3,1,0L109.3,98c0.3,0.3,0.3,0.8,0,1l-10.2,10.2c-0.3,0.3-0.8,0.3-1,0
			L87.8,99.1C87.5,98.8,87.5,98.3,87.8,98z"/>
		<line class="st2" x1="20" y1="177.1" x2="43.5" y2="153.5"/>
		<line class="st2" x1="152.1" y1="45" x2="175.7" y2="21.4"/>
		<line class="st2" x1="175.7" y1="177.1" x2="152.1" y2="153.5"/>
		<line class="st2" x1="43.5" y1="45" x2="20" y2="21.4"/>
	</g>
</g>
</svg>
