<?xml version="1.0" encoding="utf-8"?>
<!-- Generator: Adobe Illustrator 25.4.1, SVG Export Plug-In . SVG Version: 6.00 Build 0)  -->
<svg version="1.1" id="icons" xmlns="http://www.w3.org/2000/svg" xmlns:xlink="http://www.w3.org/1999/xlink" x="0px" y="0px"
	 viewBox="0 0 256 256" style="enable-background:new 0 0 256 256;" xml:space="preserve">
<style type="text/css">
	.st0{fill:#EDEBE3;}
	.st1{fill:#FE4E60;}
	.st2{fill:none;stroke:#240046;stroke-width:4;stroke-linecap:round;stroke-miterlimit:10;}
</style>
<g>
	<path class="st0" d="M136.4,207.2c3.7,0,6.6-3,6.6-6.6l0-7.9c0-4.7,2.9-9,7.3-10.8c0.1,0,0.2-0.1,0.3-0.1c4.3-1.8,9.3-0.9,12.6,2.4
		l5.6,5.5c2.6,2.5,6.7,2.5,9.3,0l12.5-12.3c2.6-2.6,2.6-6.9,0-9.4l-5.3-5.2c-3.4-3.3-4.4-8.4-2.6-12.8c0-0.1,0.1-0.1,0.1-0.2
		c1.8-4.3,6.1-7.1,10.8-7.1l7.7,0c3.7,0,6.6-3,6.6-6.6l0-16.8c0-3.7-3-6.6-6.6-6.6l-8.3,0c-4.7,0-8.9-2.9-10.7-7.2
		c-0.1-0.1-0.1-0.2-0.1-0.4c-1.8-4.3-0.9-9.3,2.4-12.7l5.5-5.5c2.6-2.6,2.6-6.7,0-9.3l-12.3-12.5c-2.6-2.6-6.9-2.6-9.4,0l-5.3,5.3
		c-3.3,3.4-8.4,4.4-12.8,2.5c-0.1,0-0.1-0.1-0.2-0.1c-4.3-1.8-7.2-6.1-7.2-10.8v-7.7c0-3.7-3-6.6-6.6-6.6H126v44.7
		c20.5,0,36.1,15.6,36.1,34.8c0.1,32.6-35.1,34.9-35.1,34.9l-0.4,45.2L136.4,207.2z"/>
	<circle class="st1" cx="127.5" cy="128.3" r="22.5"/>
	<g>
		<path class="st2" d="M152.6,103.1c13.6,13.6,13.6,35.6,0,49.2s-35.6,13.6-49.2,0s-13.6-35.6,0-49.2"/>
		<path class="st2" d="M49.5,42.7l-18-14.4c-1-0.8-1-2.4,0-3.2L48,12.6c0.6-0.5,1.5,0,1.5,0.7v6.9c0,3.4,2.7,6.1,6.1,6.1h71.6
			c54.4,0,98.6,43.9,99,98.2c0,0.4-0.4,0.8-0.8,0.8h-16.1c-0.4,0-0.8-0.3-0.8-0.8V119c0-3.7-3-6.7-6.7-6.7l-7.9,0
			c-4.8,0-9.2-2.9-11-7.4l-0.1-0.2c-1.8-4.4-0.8-9.6,2.6-13l5.3-5.4c2.6-2.6,2.6-6.8,0-9.4l-12.3-12.5c-2.6-2.7-6.9-2.7-9.5,0
			l-5.3,5.4c-3.3,3.4-8.3,4.4-12.7,2.5l-0.3-0.1c-4.3-1.8-7.1-6.1-7.1-10.8v-7.8c0-3.5-2.9-6.4-6.4-6.4h-18.2
			c-3.5,0-6.4,2.9-6.4,6.4v7.9c0,4.6-2.8,8.7-7,10.4l-0.9,0.4c-4.2,1.7-9,0.8-12.3-2.4l-6-5.9c-2.5-2.4-6.4-2.4-8.9,0L64.3,76.7
			c-2.6,2.5-2.6,6.7,0,9.2l5.7,5.6c3.3,3.2,4.2,8.1,2.4,12.2l-0.3,0.6c-1.8,4.2-6,7-10.6,7l-7.8,0c-3.7,0-6.7,3-6.7,6.7"/>
		<path class="st2" d="M206.5,213.3l18,14.4c1,0.8,1,2.4,0,3.2L208,243.4c-0.6,0.5-1.5,0-1.5-0.7v-7.3c0-3.4-2.7-6.1-6.1-6.1h-71.6
			c-54.4,0-98.6-43.9-99-98.2c0-0.4,0.4-0.8,0.8-0.8l16.1,0.1c0.4,0,0.8,0.4,0.8,0.8l0,4.5c0,3.6,3,6.6,6.7,6.6l10.1,0
			c4.7,0,8.9,2.8,10.6,7.1c0.1,0.2,0.1,0.4,0.2,0.5c1.7,4.2,0.8,9.1-2.4,12.4l-5.5,5.6c-2.5,2.5-2.5,6.6,0,9.1l12.1,12.5
			c2.6,2.6,6.8,2.6,9.3,0l5-5.1c3.3-3.4,8.3-4.4,12.7-2.6l0.1,0.1c4.2,1.8,7,5.9,7,10.5l0,8.6c0,3.4,2.8,6.2,6.2,6.2l17.7,0
			c3.4,0,6.2-2.8,6.2-6.2l0-8.2c0-4.5,2.7-8.5,6.8-10.2l1.3-0.5c4.1-1.7,8.8-0.8,11.9,2.4l6.1,6c2.5,2.4,6.4,2.4,8.9,0l13-12.7
			c2.5-2.5,2.5-6.6,0-9.1l-6-5.9c-3.1-3.1-4.1-7.7-2.3-11.7l0.4-1c1.8-4.2,5.9-6.9,10.5-6.9l7.4,0c3.7,0,6.7-3,6.7-6.7"/>
	</g>
</g>
</svg>
