<?xml version="1.0" encoding="utf-8"?>
<!-- Generator: Adobe Illustrator 26.0.3, SVG Export Plug-In . SVG Version: 6.00 Build 0)  -->
<svg version="1.1" id="icons" xmlns="http://www.w3.org/2000/svg" xmlns:xlink="http://www.w3.org/1999/xlink" x="0px" y="0px"
	 viewBox="0 0 256 256" style="enable-background:new 0 0 256 256;" xml:space="preserve">
<style type="text/css">
	.st0{fill:#FFFFFF;}
	.st1{fill:#EDEBE3;}
	.st2{fill:#240046;}
	.st3{fill:#F39191;}
	.st4{fill:#EC5657;}
</style>
<g>
	<g>
		<path class="st0" d="M233.7,229H117.8c-6.6,0-12-5.4-12-12V39c0-6.6,5.4-12,12-12h92.1c2.1,0,4.2,0.8,5.7,2.3l27.7,27.2
			c1.6,1.5,2.4,3.6,2.4,5.8V217C245.8,223.6,240.4,229,233.7,229z"/>
	</g>
	<g>
		<path class="st1" d="M162.6,92h-31.7c-4.5,0-8.1-3.6-8.1-8.1V52.1c0-4.5,3.6-8.1,8.1-8.1h31.7c4.5,0,8.1,3.6,8.1,8.1v31.7
			C170.8,88.4,167.1,92,162.6,92z"/>
	</g>
	<g>
		<path class="st1" d="M218.6,92h-31.7c-4.5,0-8.1-3.6-8.1-8.1V52.1c0-4.5,3.6-8.1,8.1-8.1h31.7c4.5,0,8.1,3.6,8.1,8.1v31.7
			C226.8,88.4,223.1,92,218.6,92z"/>
	</g>
	<g>
		<path class="st1" d="M163.6,151h-31.7c-4.5,0-8.1-3.6-8.1-8.1v-31.7c0-4.5,3.6-8.1,8.1-8.1h31.7c4.5,0,8.1,3.6,8.1,8.1v31.7
			C171.8,147.4,168.1,151,163.6,151z"/>
	</g>
	<g>
		<path class="st1" d="M219.6,151h-31.7c-4.5,0-8.1-3.6-8.1-8.1v-31.7c0-4.5,3.6-8.1,8.1-8.1h31.7c4.5,0,8.1,3.6,8.1,8.1v31.7
			C227.8,147.4,224.1,151,219.6,151z"/>
	</g>
	<g>
		<path class="st1" d="M163.6,207h-31.7c-4.5,0-8.1-3.6-8.1-8.1v-31.7c0-4.5,3.6-8.1,8.1-8.1h31.7c4.5,0,8.1,3.6,8.1,8.1v31.7
			C171.8,203.4,168.1,207,163.6,207z"/>
	</g>
	<g>
		<path class="st1" d="M219.6,207h-31.7c-4.5,0-8.1-3.6-8.1-8.1v-31.7c0-4.5,3.6-8.1,8.1-8.1h31.7c4.5,0,8.1,3.6,8.1,8.1v31.7
			C227.8,203.4,224.1,207,219.6,207z"/>
	</g>
	<g>
		<path class="st1" d="M233.7,215H117.8c-6.6,0-12-5.4-12-12v14c0,6.6,5.4,12,12,12h115.9c6.6,0,12-5.4,12-12v-14
			C245.8,209.6,240.4,215,233.7,215z"/>
	</g>
	<g>
		<path class="st2" d="M233.7,231H117.8c-7.7,0-14-6.3-14-14v-26.5c0-1.1,0.9-2,2-2s2,0.9,2,2V217c0,5.5,4.5,10,10,10h115.9
			c5.5,0,10-4.5,10-10V62.4c0-1.6-0.7-3.2-1.8-4.4l-27.7-27.2c-1.2-1.1-2.7-1.8-4.3-1.8h-92.1c-5.5,0-10,4.5-10,10v24.5
			c0,1.1-0.9,2-2,2s-2-0.9-2-2V39c0-7.7,6.3-14,14-14h92.1c2.7,0,5.2,1,7.1,2.9l27.7,27.2c1.9,1.9,3,4.5,3,7.2V217
			C247.8,224.7,241.5,231,233.7,231z"/>
	</g>
	<g>
		<path class="st3" d="M77.3,67.7c-33.5,0-60.6,27-60.6,60.2s27.1,60.2,60.6,60.2s60.6-27,60.6-60.2S110.7,67.7,77.3,67.7z
			 M77.3,176.9c-27.2,0-49.3-21.9-49.3-49S50.1,79,77.3,79s49.2,21.9,49.2,48.9S104.5,176.9,77.3,176.9z"/>
	</g>
	<g>
		<path class="st0" d="M209.3,36.4l27.1,27.1h-16.9c-5.6,0-10.2-4.6-10.2-10.2L209.3,36.4z"/>
	</g>
	<g>
		<path class="st2" d="M219.5,65.5c-6.7,0-12.2-5.5-12.2-12.2V36.4c0-1.1,0.9-2,2-2l0,0c1.1,0,2,0.9,2,2v16.9c0,4.5,3.7,8.2,8.2,8.2
			h16.9c1.1,0,2,0.9,2,2c0,1.1-0.9,2-2,2H219.5z"/>
	</g>
	<g>
		<path class="st2" d="M77.2,190.3c-34.5,0-62.6-28.1-62.6-62.6c0-34.6,28-62.7,62.6-62.7c30.9,0,57.6,23,62,53.6
			c0.2,1.1-0.6,2.1-1.7,2.3c-1.1,0.2-2.1-0.6-2.3-1.7c-4.1-28.6-29.1-50.2-58-50.2c-32.3,0-58.6,26.3-58.6,58.6s26.3,58.6,58.6,58.6
			c14.2,0,27.8-5.1,38.5-14.4c0.9-0.8,1.9-1.7,2.8-2.6c8.6-8.5,14.3-19.3,16.4-31.2c0.2-1.1,1.2-1.8,2.3-1.6s1.8,1.2,1.6,2.3
			c-2.3,12.7-8.3,24.2-17.6,33.4c-0.9,0.9-1.9,1.9-2.9,2.7C106.9,184.8,92.3,190.3,77.2,190.3z"/>
	</g>
	<g>
		<path class="st2" d="M77.1,179c-28.3,0-51.3-23-51.3-51.3s23-51.3,51.3-51.3c21.1,0,40.4,13.2,47.9,33c0.4,1-0.1,2.2-1.2,2.6
			c-1,0.4-2.2-0.1-2.6-1.2c-7-18.2-24.7-30.4-44.2-30.4c-26.1,0-47.3,21.2-47.3,47.3S50.9,175,77,175c11.4,0,22.5-4.1,31.1-11.6
			c0.8-0.7,1.5-1.4,2.2-2.1c7-6.9,11.6-15.6,13.3-25.2c0.2-1.1,1.2-1.8,2.3-1.6c1.1,0.2,1.8,1.2,1.6,2.3
			c-1.9,10.4-6.8,19.9-14.4,27.4c-0.8,0.8-1.6,1.5-2.4,2.2C101.5,174.5,89.5,179,77.1,179z"/>
	</g>
	<g>
		<path class="st2" d="M29.6,180.8c-0.5,0-1-0.2-1.4-0.6c-0.8-0.8-0.8-2,0-2.8l5.7-5.7c0.8-0.8,2-0.8,2.8,0s0.8,2,0,2.8l-5.7,5.7
			C30.6,180.6,30.1,180.8,29.6,180.8z"/>
	</g>
	<g>
		<path class="st0" d="M34.9,186.4l-12.1-12.1c-0.2-0.2-0.5-0.2-0.6,0l-12,11.8l12.7,12.7l12-11.8C35.1,186.9,35.1,186.6,34.9,186.4
			z"/>
	</g>
	<g>
		<path class="st3" d="M34.9,186.4l-4.4-4.4l-12.3,12.1l4.7,4.7l12-11.8C35.1,186.9,35.1,186.6,34.9,186.4z"/>
	</g>
	<g>
		<path class="st2" d="M22.9,200.9c-0.5,0-1-0.2-1.4-0.6c-0.8-0.8-0.8-2.1,0-2.8l10.9-10.7l-9.9-9.9l-10.9,10.7
			c-0.8,0.8-2.1,0.8-2.8,0c-0.8-0.8-0.8-2.1,0-2.8l12-11.8c1-0.9,2.5-0.9,3.5,0l12,12c0.5,0.5,0.7,1.1,0.7,1.7
			c0,0.7-0.3,1.3-0.7,1.7l-12,11.8C24,200.7,23.4,200.9,22.9,200.9z"/>
	</g>
	<g>
		<path class="st4" d="M110,152.1L110,152.1c-1.9,0-3.4-1.2-3.9-2.9l-16.3-46.9l-16.9,39.3c-0.6,1.5-2,2.4-3.7,2.4c0,0,0,0-0.1,0
			c-1.6,0-3-0.9-3.7-2.4L56,121.2l-4.2,6.9c-1.3,2.1-3.6,3.3-6,3.3h-7.3c-1.1,0-2-0.9-2-2s0.9-2,2-2h7.3c1,0,2-0.6,2.6-1.4l4.3-7
			c0.8-1.2,2.1-2,3.6-1.9c1.4,0.1,2.7,1,3.3,2.3l9.5,20.6l17.1-39.7c0.7-1.5,2.2-2.4,3.8-2.3c1.6,0.1,3,1.2,3.4,2.8l16.5,47.3
			l0.1-0.1l12-30.2c0.5-1.3,1.8-2.3,3.2-2.4c1.5-0.1,2.9,0.8,3.5,2.1l3.5,7.4c0.5,1.1,1.6,1.7,2.7,1.7h60.8c1.1,0,2,0.9,2,2
			s-0.9,2-2,2h-60.8c-2.7,0-5.2-1.6-6.4-4l-3.1-6.7l-11.7,29.5C113.2,151.1,111.7,152.1,110,152.1z M125.7,119.3L125.7,119.3
			L125.7,119.3z"/>
	</g>
</g>
</svg>
