<?xml version="1.0" encoding="utf-8"?>
<!-- Generator: Adobe Illustrator 26.0.3, SVG Export Plug-In . SVG Version: 6.00 Build 0)  -->
<svg version="1.1" id="Layer_1" xmlns="http://www.w3.org/2000/svg" xmlns:xlink="http://www.w3.org/1999/xlink" x="0px" y="0px"
	 viewBox="0 0 232 232" style="enable-background:new 0 0 232 232;" xml:space="preserve">
<style type="text/css">
	.st0{fill:#EC5657;}
	.st1{fill:#F5F3ED;}
	.st2{fill:none;stroke:#240046;stroke-width:4;stroke-linecap:round;stroke-miterlimit:10;}
</style>
<g id="Layer_2_00000117659156623117964440000013766113580864271002_">
	<g id="icons">
		<circle class="st0" cx="115.9" cy="10.5" r="7.5"/>
		<circle class="st0" cx="190.9" cy="41.5" r="7.5"/>
		<circle class="st0" cx="221.9" cy="115.5" r="7.5"/>
		<circle class="st0" cx="190.9" cy="190.5" r="7.5"/>
		<circle class="st0" cx="115.9" cy="221.5" r="7.5"/>
		<circle class="st0" cx="41" cy="191.5" r="7.5"/>
		<circle class="st0" cx="9.9" cy="116.5" r="7.5"/>
		<circle class="st0" cx="41" cy="41.5" r="7.5"/>
		<path class="st1" d="M115.9,78c-1.3,0-2.6,0.2-3.9,0.5c8.3,2.1,13.3,10.5,11.2,18.8c-1.4,5.5-5.7,9.8-11.2,11.2
			c1.3,0.3,2.6,0.5,3.9,0.5c8.6,0,15.5-6.9,15.5-15.5S124.5,78,115.9,78L115.9,78z"/>
		<path class="st1" d="M78.4,157v-26.4c-0.1-5,2.6-9.6,7-12l9.6-4.9c2.9-1.5,6.5-0.5,8.3,2.3l12.7,17l15.2-18.3
			c1.9-2.2,5-2.8,7.6-1.6l8.8,4.3c5.5,2.8,8.8,8.5,8.7,14.6v25H78.4z"/>
		<circle class="st2" cx="116.9" cy="93.5" r="16"/>
		<path class="st2" d="M156,156.5v-27.5c0-6.1-4-11.6-9.8-13.4l-9.9-3.1c-1.3-0.4-2.7,0-3.6,0.9l-11,11.7"/>
		<path class="st2" d="M78,156.5v-27.5c0-6.1,4-11.6,9.8-13.4l9.6-3c1.4-0.4,2.9,0.1,3.8,1.2l16.2,22"/>
		<circle class="st2" cx="116.4" cy="116" r="71.5"/>
		<path class="st2" d="M124,10.1c0-4.5-3.6-8.1-8.1-8.1s-8.1,3.6-8.1,8.1s3.6,8.1,8.1,8.1c0,0,0,0,0.1,0v15.4"/>
		<path class="st2" d="M196.6,46.7c3.1-3.1,3.1-8.2,0-11.4s-8.2-3.1-11.4,0c-3.1,3.1-3.1,8.2,0,11.4l-10.8,10.8"/>
		<path class="st2" d="M221.9,123.5c4.5,0,8.1-3.6,8.1-8.1s-3.6-8.1-8.1-8.1s-8.1,3.6-8.1,8.1c0,0,0,0,0,0.1H199"/>
		<path class="st2" d="M185.3,196.5c3.1,3.1,8.2,3.1,11.4,0s3.1-8.2,0-11.4c-3.1-3.1-8.2-3.1-11.4,0l-10.8-10.8"/>
		<path class="st2" d="M107.9,221.9c0,4.5,3.6,8.1,8.1,8c4.5,0,8.1-3.6,8-8.1c0-4.5-3.6-8.1-8.1-8c0,0,0,0,0,0v-15.4"/>
		<path class="st2" d="M35.5,185.3c-3.1,3.1-3.1,8.2,0,11.4s8.2,3.1,11.4,0c3.1-3.1,3.1-8.2,0-11.4l10.8-10.8"/>
		<path class="st2" d="M10,108.4c-4.5,0-8.1,3.6-8,8.1c0,4.5,3.6,8.1,8.1,8s8.1-3.6,8-8.1c0,0,0,0,0,0h14.8"/>
		<path class="st2" d="M46.5,35.6c-3.1-3.1-8.2-3.1-11.4,0s-3.1,8.2,0,11.4c3.1,3.1,8.2,3.1,11.4,0l10.9,10.8"/>
	</g>
</g>
</svg>
