<?xml version="1.0" encoding="utf-8"?>
<!-- Generator: Adobe Illustrator 27.0.1, SVG Export Plug-In . SVG Version: 6.00 Build 0)  -->
<svg version="1.1" id="icons" xmlns="http://www.w3.org/2000/svg" xmlns:xlink="http://www.w3.org/1999/xlink" x="0px" y="0px"
	 viewBox="0 0 256 256" style="enable-background:new 0 0 256 256;" xml:space="preserve">
<style type="text/css">
	.st0{fill:#EDEBE3;}
	.st1{fill:#EC5657;}
	.st2{fill:none;stroke:#240046;stroke-width:4;stroke-linecap:round;stroke-miterlimit:10;}
</style>
<g>
	<g>
		
			<rect x="123.5" y="60.4" transform="matrix(0.7731 -0.6343 0.6343 0.7731 -21.1894 112.1014)" class="st0" width="45.2" height="50.6"/>
		<path class="st0" d="M127.9,110.8l-25.3,16.4L26.8,193c-2.4,2.1-5.7,2.9-8.9,2.2l-6.4-2l115.1-93.6l7.3,7.9L127.9,110.8z"/>
		<path class="st1" d="M199.9,97.6l-5.1-6.3c-1.2-1.4-2.9-2.2-4.8-2.2l-10.2,0.2l-18.9,15.4L142,120l-2.2,10
			c-0.4,1.8,0.1,3.7,1.2,5.1l5.1,6.3c1.6,1.9,4.4,2.2,6.4,0.6l46.8-38.1C201.2,102.3,201.5,99.5,199.9,97.6z"/>
		<path class="st1" d="M150.6,38l-5.1-6.3c-1.6-1.9-4.4-2.2-6.4-0.6L92.3,69.1c-1.9,1.6-2.2,4.4-0.7,6.4l5.2,6.3
			c1.2,1.4,2.9,2.2,4.8,2.2l10.2-0.2l18.9-15.4L149.6,53l2.2-10C152.2,41.3,151.8,39.4,150.6,38z"/>
		<rect x="139.3" y="218" class="st0" width="93" height="8"/>
	</g>
	<g>
		<g>
			<path class="st2" d="M179.8,89.5l10.2-0.2c1.8,0,3.6,0.8,4.8,2.2l5.1,6.3c1.6,1.9,1.3,4.8-0.6,6.4l-46.8,38.1
				c-1.9,1.6-4.8,1.3-6.4-0.6l-5.1-6.3c-1.2-1.4-1.6-3.3-1.2-5.1l2.2-10l18.9-15.4"/>
			<path class="st2" d="M149.6,52.5l2.2-10c0.4-1.8-0.1-3.7-1.2-5.1l-5.1-6.3c-1.6-1.9-4.4-2.2-6.4-0.6L92.3,68.6
				c-1.9,1.6-2.2,4.4-0.7,6.4l5.2,6.3c1.2,1.4,2.9,2.2,4.8,2.2l10.2-0.2l18.9-15.4"/>
			<line class="st2" x1="178.9" y1="89.1" x2="149.5" y2="53.1"/>
			<line class="st2" x1="113.6" y1="82.4" x2="142.9" y2="118.4"/>
			<path class="st2" d="M127.9,110.8l-25.3,16.4l-77.4,66.9c-3.9,3.4-9.7,2.8-13-1.1l0,0c-3.2-4-2.6-9.8,1.5-12.9l81.2-62.3
				l21.2-21.5"/>
		</g>
		<path class="st2" d="M139.8,223.5v-9c0-2.8,2.2-5,5-5h83c2.8,0,5,2.2,5,5v9"/>
		<path class="st2" d="M155.8,198.5v-5.7c0-1.8,1.5-3.3,3.3-3.3h55.4c1.8,0,3.3,1.5,3.3,3.3v5.7"/>
		<line class="st2" x1="128.8" y1="226.5" x2="242.8" y2="226.5"/>
		<line class="st2" x1="213.8" y1="162.5" x2="213.8" y2="176.5"/>
		<line class="st2" x1="235.8" y1="171.3" x2="226.1" y2="181"/>
		<line class="st2" x1="245.8" y1="192.5" x2="231.8" y2="192.5"/>
	</g>
</g>
</svg>
