<?xml version="1.0" encoding="utf-8"?>
<!-- Generator: Adobe Illustrator 25.4.1, SVG Export Plug-In . SVG Version: 6.00 Build 0)  -->
<svg version="1.1" id="icons" xmlns="http://www.w3.org/2000/svg" xmlns:xlink="http://www.w3.org/1999/xlink" x="0px" y="0px"
	 viewBox="0 0 256 256" style="enable-background:new 0 0 256 256;" xml:space="preserve">
<style type="text/css">
	.st0{fill:#F9F9F9;}
	.st1{fill:#F8F6F2;}
	.st2{fill:#FE4E60;}
	.st3{fill:none;stroke:#240046;stroke-width:4;stroke-linecap:round;stroke-miterlimit:10;}
</style>
<g>
	<g>
		<path class="st0" d="M128.2,89.2c-1.4,0-2.7,0.2-3.9,0.5c6.7,1.7,11.6,7.8,11.6,15s-4.9,13.2-11.6,15c1.2,0.3,2.6,0.5,3.9,0.5
			c8.6,0,15.5-6.9,15.5-15.5S136.7,89.2,128.2,89.2z"/>
		<path class="st1" d="M140.5,235c4.8,0,8.7-3.9,8.7-8.7l0-10.4c0-6.4,3.9-12,9.8-14.4c0.1-0.1,0.2-0.1,0.3-0.1
			c5.8-2.4,12.6-1.2,17.1,3.2l7.4,7.3c3.5,3.4,9,3.4,12.5,0l16.7-16.5c3.5-3.5,3.5-9.2,0-12.7l-7.1-7c-4.5-4.5-5.9-11.3-3.4-17.2
			c0-0.1,0.1-0.2,0.1-0.2c2.4-5.8,8.1-9.6,14.4-9.6l10.3,0c4.9,0,8.9-4,8.9-8.9l0-23.2c0-4.9-4-8.9-8.9-8.9l-10.9,0
			c-6.3,0-12-3.9-14.4-9.8c-0.1-0.2-0.1-0.3-0.2-0.4c-2.4-5.8-1.1-12.5,3.3-17l7.2-7.3c3.4-3.5,3.4-9.1,0-12.5L195.9,44
			c-3.5-3.5-9.2-3.5-12.7,0l-7,7.1c-4.5,4.5-11.3,5.9-17.2,3.4c-0.1,0-0.1-0.1-0.2-0.1c-5.8-2.4-9.6-8.1-9.6-14.4V29.6
			c0-4.9-4-8.9-8.9-8.9h-13.1v60.1c26.9,0,47.8,21,47.9,46.8c0.1,43.8-46.9,46.8-46.9,46.8l-0.5,60.7L140.5,235z"/>
		<path class="st2" d="M99.3,163.2v-22.6c0-3.6,2.1-6.8,5.3-8.4l7.2-3.4c2.2-1,4.9-0.4,6.3,1.6l8.7,11.9l12.4-12.9
			c1.5-1.6,3.8-2,5.8-1.1l6.6,3c4,1.8,6.6,5.8,6.6,10.2v23.9C158.3,165.5,125.8,187.6,99.3,163.2z"/>
	</g>
	<g>
		<g>
			<circle class="st3" cx="128.3" cy="104.7" r="15.5"/>
			<path class="st3" d="M157.8,161.2v-20.7c0-4.7-3-8.8-7.5-10.2l-7.5-2.4c-1-0.3-2,0-2.7,0.7l-6.1,6.5"/>
			<path class="st3" d="M98.8,161.2v-20.6c0-4.7,3-8.8,7.5-10.2l7.3-2.3c1.1-0.3,2.2,0,2.9,0.9l12.3,16.7l-0.3,17.5"/>
		</g>
		<path class="st3" d="M160.6,95.6c18.1,18.1,18.1,47.5,0,65.6s-47.5,18.1-65.6,0s-18.1-47.5,0-65.6"/>
		<path class="st3" d="M225.9,108.2l-10.9,0c-6.3,0-12-3.8-14.4-9.7c-0.1-0.2-0.2-0.4-0.2-0.6c-2.4-5.8-1.1-12.5,3.3-16.9l7.2-7.3
			c3.4-3.5,3.4-9.1,0-12.5l-16.5-16.7c-3.5-3.5-9.2-3.5-12.7,0l-7,7.1c-4.5,4.5-11.3,5.9-17.2,3.4c-0.1,0-0.2-0.1-0.2-0.1
			c-5.8-2.4-9.6-8.1-9.6-14.4V30.1c0-4.9-4-8.9-8.9-8.9h-23.2c-4.9,0-8.9,4-8.9,8.9v10c0,6.3-3.8,12-9.7,14.5
			c-0.1,0-0.2,0.1-0.4,0.2c-5.8,2.4-12.5,1.1-16.9-3.3l-7.3-7.3c-3.5-3.4-9-3.4-12.5,0L43.1,60.5c-3.5,3.5-3.6,9.2,0,12.7l7.1,7
			c4.5,4.5,5.9,11.3,3.4,17.2c0,0.1-0.1,0.2-0.1,0.2c-2.4,5.8-8.1,9.6-14.4,9.6l-10.4,0c-4.9,0-8.9,4-8.9,8.9l0,23.2
			c0,4.9,4,8.9,8.9,8.9l13.5,0c6.2,0,11.8,3.8,14.1,9.6c0.1,0.3,0.2,0.6,0.4,0.9c2.3,5.6,1.1,12-3.1,16.4L46,183
			c-3.3,3.4-3.3,8.7,0,12.1l16.2,16.8c3.4,3.6,9.1,3.6,12.5,0l6.7-6.9c4.4-4.6,11.2-5.9,17-3.4c0.1,0,0.1,0.1,0.2,0.1
			c5.6,2.4,9.2,7.9,9.2,14l0,10.8c0,4.8,3.9,8.7,8.7,8.7l22.6,0c4.8,0,8.7-3.9,8.7-8.7l0-10.1c0-6.3,3.8-12,9.7-14.4
			c0.2-0.1,0.4-0.2,0.6-0.2c5.8-2.4,12.5-1.1,16.9,3.3l7.3,7.2c3.5,3.4,9.1,3.4,12.5,0l16.7-16.4c3.5-3.5,3.6-9.2,0-12.7l-7.1-7
			c-4.5-4.5-5.9-11.3-3.4-17.2c0-0.1,0.1-0.2,0.1-0.2c2.4-5.8,8.1-9.6,14.4-9.6l10.3,0c4.9,0,8.9-4,8.9-8.9l0-23.2
			C234.8,112.2,230.8,108.2,225.9,108.2z"/>
	</g>
</g>
</svg>
