<?xml version="1.0" encoding="utf-8"?>
<!-- Generator: Adobe Illustrator 26.0.3, SVG Export Plug-In . SVG Version: 6.00 Build 0)  -->
<svg version="1.1" id="icons" xmlns="http://www.w3.org/2000/svg" xmlns:xlink="http://www.w3.org/1999/xlink" x="0px" y="0px"
	 viewBox="0 0 256 256" style="enable-background:new 0 0 256 256;" xml:space="preserve">
<style type="text/css">
	.st0{fill:#EC5657;}
	.st1{fill:#EDEBE3;}
	.st2{fill:#240046;}
	.st3{fill:#F5F3ED;}
	.st4{fill:#FFFFFF;}
	.st5{fill:#F39191;}
	.st6{fill:#FFF8EB;}
</style>
<g>
	<g>
		<circle class="st0" cx="183.5" cy="52.8" r="23.5"/>
	</g>
	<g>
		<path class="st1" d="M223,189.9v-84.4c0-11.3-9.2-20.5-20.5-20.5H157v109h62C221.2,193.9,223,192.1,223,189.9z"/>
	</g>
	<g>
		<path class="st2" d="M192.2,196.3c-1.1,0-2-0.9-2-2s0.9-2,2-2L219,192c1.1,0,2-0.9,2-2v-84.5c0-10.2-8.3-18.5-18.5-18.5H159v107
			c0,1.1-0.9,2-2,2s-2-0.9-2-2V83h47.5c12.4,0,22.5,10.1,22.5,22.5V190c0,3.3-2.7,6-5.9,6L192.2,196.3L192.2,196.3z"/>
	</g>
	<g>
		<path class="st3" d="M207,85h-99v142h56.9c11.1,0,20.1-9,20.1-20.1V106.7c0-11.9,9.6-21.6,21.5-21.7H207z"/>
	</g>
	<g>
		<path class="st2" d="M164.9,229H106V85c0-1.1,0.9-2,2-2s2,0.9,2,2v140h54.9c10,0,18.1-8.1,18.1-18.1V106.7
			c0-8.2,4.2-15.5,10.6-19.7h-40.8c-1.1,0-2-0.9-2-2s0.9-2,2-2H207v4h-0.5c-10.8,0.1-19.5,8.9-19.5,19.7v100.2
			C187,219.1,177.1,229,164.9,229z"/>
	</g>
	<g>
		<path class="st4" d="M145,33v168.6c0,12.4,8.8,23.1,21,25.4l0,0h-21H52.7c-10.9,0-19.7-8.8-19.7-19.7V33c0-2.2,1.8-4,4-4h104.1
			C143.2,29,145,30.8,145,33z"/>
	</g>
	<g>
		<path class="st2" d="M166,229H52.7c-11.9,0-21.7-9.7-21.7-21.7V33c0-3.3,2.7-6,6-6h104c3.3,0,6,2.7,6,6v168.6
			c0,11.4,8.1,21.3,19.4,23.4L166,229z M141,31H37c-1.1,0-2,0.9-2,2v174.3c0,9.7,7.9,17.7,17.7,17.7h103.1
			c-7.7-5-12.7-13.7-12.7-23.4V33C143,31.9,142.1,31,141,31z"/>
	</g>
	<g>
		<path class="st2" d="M131,186.3H46.6c-1.1,0-2-0.9-2-2s0.9-2,2-2H131c1.1,0,2,0.9,2,2C133,185.4,132.1,186.3,131,186.3z"/>
	</g>
	<g>
		<path class="st2" d="M89,196.3H46.6c-1.1,0-2-0.9-2-2s0.9-2,2-2H89c1.1,0,2,0.9,2,2C91,195.4,90.1,196.3,89,196.3z"/>
	</g>
	<g>
		<path class="st2" d="M131.7,61.3h-31c-1.1,0-2-0.9-2-2s0.9-2,2-2h31c1.1,0,2,0.9,2,2C133.7,60.4,132.8,61.3,131.7,61.3z"/>
	</g>
	<g>
		<path class="st2" d="M131.7,71.3h-31c-1.1,0-2-0.9-2-2s0.9-2,2-2h31c1.1,0,2,0.9,2,2S132.8,71.3,131.7,71.3z"/>
	</g>
	<g>
		<path class="st2" d="M131.7,81.3h-31c-1.1,0-2-0.9-2-2s0.9-2,2-2h31c1.1,0,2,0.9,2,2S132.8,81.3,131.7,81.3z"/>
	</g>
	<g>
		<path class="st2" d="M115.7,91.3h-15c-1.1,0-2-0.9-2-2s0.9-2,2-2h15c1.1,0,2,0.9,2,2S116.8,91.3,115.7,91.3z"/>
	</g>
	<g>
		<path class="st5" d="M68.2,72.8h24.5c0,13.4-11.1,24.5-24.5,24.5s-24.5-11-24.5-24.5c0-13.4,11-24.5,24.5-24.5V72.8z"/>
	</g>
	<g>
		<path class="st0" d="M71.7,69.3l-0.3-21c0.1,0,0.2,0,0.3,0c11.5,0,21,9.5,21,21H71.7z"/>
	</g>
	<g>
		<g>
			<path class="st4" d="M93.3,137.7h-9.2c-2.2,0-4,1.8-4,4v29h17.1v-29C97.2,139.5,95.5,137.7,93.3,137.7z"/>
		</g>
		<g>
			<path class="st6" d="M121.3,121.3h-9.2c-2.2,0-4,1.8-4,4v45.4h17.1v-45.4C125.3,123.1,123.5,121.3,121.3,121.3z"/>
		</g>
		<g>
			<path class="st4" d="M65.2,150.1H56c-2.2,0-4,1.8-4,4v16.6h17.1v-16.6C69.2,151.9,67.4,150.1,65.2,150.1z"/>
		</g>
		<g>
			<path class="st5" d="M88.6,137.7h-5.5c-1.7,0-3.1,1.4-3.1,3.1v29.9h5.5v-29.9C85.5,139.1,86.9,137.7,88.6,137.7z"/>
		</g>
		<g>
			<path class="st5" d="M116.7,121.3h-5.5c-1.7,0-3.1,1.4-3.1,3.1v46.3h5.5v-46.3C113.6,122.7,115,121.3,116.7,121.3z"/>
		</g>
		<g>
			<path class="st5" d="M60.6,150.1h-5.5c-1.7,0-3.1,1.4-3.1,3.1v17.4h5.5v-17.4C57.5,151.5,58.9,150.1,60.6,150.1z"/>
		</g>
		<g>
			<path class="st2" d="M97.2,172.7c-1.1,0-2-0.9-2-2v-29.9c0-0.6-0.5-1.1-1.1-1.1h-11c-0.6,0-1.1,0.5-1.1,1.1v29.9c0,1.1-0.9,2-2,2
				s-2-0.9-2-2v-29.9c0-2.8,2.3-5.1,5.1-5.1h11c2.8,0,5.1,2.3,5.1,5.1v29.9C99.2,171.8,98.3,172.7,97.2,172.7z"/>
		</g>
		<g>
			<path class="st2" d="M125.3,172.7c-1.1,0-2-0.9-2-2v-46.3c0-0.6-0.5-1.1-1.1-1.1h-11c-0.6,0-1.1,0.5-1.1,1.1v46.3
				c0,1.1-0.9,2-2,2s-2-0.9-2-2v-46.3c0-2.8,2.3-5.1,5.1-5.1h11c2.8,0,5.1,2.3,5.1,5.1v46.3C127.3,171.8,126.4,172.7,125.3,172.7z"
				/>
		</g>
		<g>
			<path class="st2" d="M69.2,172.7c-1.1,0-2-0.9-2-2v-17.4c0-0.6-0.5-1.1-1.1-1.1h-11c-0.6,0-1.1,0.5-1.1,1.1v17.4c0,1.1-0.9,2-2,2
				s-2-0.9-2-2v-17.4c0-2.8,2.3-5.1,5.1-5.1h11c2.8,0,5.1,2.3,5.1,5.1v17.4C71.2,171.8,70.3,172.7,69.2,172.7z"/>
		</g>
	</g>
	<g>
		<path class="st2" d="M178.8,62.2l-6.7-6.7c-0.8-0.8-0.8-2,0-2.8s2-0.8,2.8,0l3.9,3.9l12-12c0.8-0.8,2-0.8,2.8,0s0.8,2,0,2.8
			L178.8,62.2z"/>
	</g>
</g>
</svg>
