<?xml version="1.0" encoding="utf-8"?>
<!-- Generator: Adobe Illustrator 26.0.3, SVG Export Plug-In . SVG Version: 6.00 Build 0)  -->
<svg version="1.1" id="Layer_1" xmlns="http://www.w3.org/2000/svg" xmlns:xlink="http://www.w3.org/1999/xlink" x="0px" y="0px"
	 viewBox="0 0 196 198.2" style="enable-background:new 0 0 196 198.2;" xml:space="preserve">
<style type="text/css">
	.st0{fill:#F39191;}
	.st1{fill:#EDEBE3;}
	.st2{fill:#EC5657;}
	.st3{fill:none;stroke:#240046;stroke-width:4;stroke-linecap:round;stroke-miterlimit:10;}
</style>
<g id="Layer_2_00000171679094128694622010000005905542897241475512_">
	<g id="icons">
		<path class="st0" d="M104.5,1.7v30.1c0,4.3,3.5,7.9,7.9,7.9c0,0,0.1,0,0.1,0l29.6-0.4L104.5,1.7z"/>
		<path class="st1" d="M17.5,2.7v192H6.7c-2.3,0-4.1-1.9-4.2-4.1V7.3c0-2.6,2.1-4.6,4.6-4.6l0,0H17.5z"/>
		<path class="st1" d="M46.3,23.8c-0.9,0-1.9,0.1-2.8,0.4c5.8,1.5,9.3,7.5,7.8,13.3c-1,3.8-4,6.8-7.8,7.8c5.8,1.5,11.8-2,13.3-7.8
			c1.5-5.8-2-11.8-7.8-13.3C48.2,23.9,47.3,23.8,46.3,23.8z"/>
		<polygon class="st2" points="168.5,40.7 168.5,167.7 173.9,179.7 181.5,167.7 180.5,40.7 		"/>
		<circle class="st3" cx="48.5" cy="34.7" r="11.5"/>
		<path class="st3" d="M70,78.2V62.1c0-3.5-2.3-6.5-5.6-7.6l-5.6-1.8c-0.7-0.2-1.5,0-2,0.5l-3.1,3.3"/>
		<path class="st3" d="M26,77.2V62.2c0-3.5,2.3-6.5,5.6-7.6l5.2-1.7c0.8-0.2,1.7,0,2.2,0.7l9,12.2l-0.2,13.2"/>
		<path class="st3" d="M2.4,6.1c0-2.2,1.7-3.9,3.9-3.9c0,0,0,0,0,0h97.5c0.4,0,0.8,0.2,1.2,0.5l36.7,37.6c0.3,0.3,0.5,0.7,0.4,1.1
			v150.9c0,2.2-1.8,3.9-3.9,3.9c0,0,0,0,0,0H6.7c-2.6,0-4.7-2.1-4.7-4.7c0,0,0,0,0,0L2.4,6.1z"/>
		<path class="st3" d="M112.2,40.2h29.8c0.1,0,0.2-0.1,0.3-0.2c0-0.1,0-0.2-0.1-0.2L104.4,2.1c-0.1-0.1-0.3-0.1-0.4,0
			c0,0-0.1,0.1-0.1,0.2V32C104,36.5,107.7,40.2,112.2,40.2C112.2,40.2,112.2,40.2,112.2,40.2z"/>
		<path class="st3" d="M21.4,99.2h10.2c0.2,0,0.4,0.2,0.4,0.4v10.2c0,0.2-0.2,0.4-0.4,0.4H21.4c-0.2,0-0.4-0.2-0.4-0.4V99.5
			C21,99.3,21.2,99.2,21.4,99.2z"/>
		<path class="st3" d="M21.4,129.2h10.2c0.2,0,0.4,0.2,0.4,0.4v10.2c0,0.2-0.2,0.4-0.4,0.4H21.4c-0.2,0-0.4-0.2-0.4-0.4v-10.2
			C21,129.3,21.2,129.2,21.4,129.2z"/>
		<path class="st3" d="M21.4,159.2h10.2c0.2,0,0.4,0.2,0.4,0.4v10.2c0,0.2-0.2,0.4-0.4,0.4H21.4c-0.2,0-0.4-0.2-0.4-0.4v-10.2
			C21,159.3,21.2,159.2,21.4,159.2z"/>
		<line class="st3" x1="46" y1="101.2" x2="127" y2="101.2"/>
		<line class="st3" x1="46" y1="114.2" x2="88" y2="114.2"/>
		<line class="st3" x1="46" y1="129.2" x2="127" y2="129.2"/>
		<line class="st3" x1="46" y1="142.2" x2="88" y2="142.2"/>
		<line class="st3" x1="46" y1="159.2" x2="127" y2="159.2"/>
		<line class="st3" x1="46" y1="172.2" x2="88" y2="172.2"/>
		<polygon class="st3" points="181,40.2 181,169 175.6,179.2 173.4,179.2 168,169 168,40.2 		"/>
		<line class="st3" x1="175" y1="182.2" x2="175" y2="188.2"/>
		<path class="st3" d="M170,32.2V16.9c0-2.1,1.7-3.9,3.9-3.9l0,0h0.3c2.1,0,3.9,1.7,3.9,3.9l0,0v15.2"/>
		<line class="st3" x1="171" y1="167.2" x2="180" y2="167.2"/>
		<path class="st3" d="M171,58.2h21.9c0.6,0,1.1,0.5,1.1,1.1v0v40.9"/>
	</g>
</g>
</svg>
