<?xml version="1.0" encoding="utf-8"?>
<!-- Generator: Adobe Illustrator 25.4.1, SVG Export Plug-In . SVG Version: 6.00 Build 0)  -->
<svg version="1.1" id="icons" xmlns="http://www.w3.org/2000/svg" xmlns:xlink="http://www.w3.org/1999/xlink" x="0px" y="0px"
	 viewBox="0 0 256 256" style="enable-background:new 0 0 256 256;" xml:space="preserve">
<style type="text/css">
	.st0{fill:#FE4E60;}
	.st1{fill:#EDEBE3;}
	.st2{fill:none;stroke:#240046;stroke-width:4;stroke-linecap:round;stroke-miterlimit:10;}
</style>
<g>
	<g>
		<path class="st0" d="M174.4,96.8l-13-6.6l-12.8,7c-2.2,1.2-4.9-0.7-4.5-3.2l2.3-14.4l-10.6-10.1c-1.9-1.8-0.9-4.9,1.6-5.3
			l14.4-2.3l6.3-13.2c1.1-2.3,4.4-2.4,5.6-0.1l6.6,13l14.5,1.9c2.5,0.3,3.6,3.4,1.8,5.3l-10.3,10.3l2.7,14.4
			C179.3,96,176.6,98,174.4,96.8z"/>
		<g>
			<path class="st1" d="M221.7,23.6c0.3,1-0.2,3-0.2,3v82.6c0,6.5-5.2,11.7-11.7,11.7h-69.9L120.5,140v17.3c0,0.4,0.4,0.6,0.7,0.3
				l28.1-27.8h70.5c0,0,12.7,0.4,12.7-12V35.2C231.9,29.3,227.5,24.5,221.7,23.6z"/>
		</g>
		<path class="st1" d="M81,116.3c-1.9,0-3.8,0.3-5.6,0.7c9.5,2.5,16.5,11.1,16.5,21.4s-7,18.9-16.5,21.4c1.8,0.5,3.7,0.7,5.6,0.7
			c12.2,0,22.1-9.9,22.1-22.1C103.1,126.2,93.2,116.3,81,116.3z"/>
		<path class="st0" d="M23.5,230.9v-40.5c0-6.9,4-13.2,10.3-16.1l14.3-6.6c4.3-2,9.3-0.7,12.1,3.1l18.7,25.4l22.6-27.3
			c2.9-3,7.3-3.8,11.1-2.1l13.1,5.8c7.8,3.4,12.8,11.1,12.8,19.7v38.7L23.5,230.9L23.5,230.9z"/>
	</g>
	<g>
		<g>
			<line class="st2" x1="46" y1="78.4" x2="46" y2="82.4"/>
			<line class="st2" x1="46" y1="97.4" x2="46" y2="101.4"/>
			<line class="st2" x1="35" y1="90.4" x2="39" y2="90.4"/>
			<line class="st2" x1="54" y1="90.4" x2="57" y2="90.4"/>
		</g>
		<path id="XMLID_45_" class="st2" d="M174.7,97.4L160.8,90l-14,7.2c-1.7,0.9-3.7-0.6-3.4-2.5l2.8-15.5l-11.2-11.1
			c-1.4-1.4-0.6-3.7,1.3-3.9L152,62l7.1-14.1c0.9-1.7,3.3-1.7,4.2,0l6.9,14.2l15.6,2.4c1.9,0.3,2.6,2.6,1.2,4l-11.4,10.9l2.5,15.6
			C178.4,96.9,176.4,98.3,174.7,97.4z"/>
		<path class="st2" d="M115,128.4h5v27.5c0,0.4,0.5,0.6,0.8,0.3l29.8-27.8h70.2c6.8,0,12.3-5.5,12.3-12.3V36.6
			c0-6.8-5.5-12.3-12.3-12.3H99.3c-6.8,0-12.3,5.5-12.3,12.3v65.7"/>
		<circle class="st2" cx="81" cy="138.4" r="24"/>
		<path class="st2" d="M138,232.4v-41c0-9.1-5.9-17.1-14.6-19.9l-14.7-4.6c-1.9-0.6-3.9-0.1-5.3,1.4l-16.3,17.4"/>
		<path class="st2" d="M23,232.4v-41c0-9.1,5.9-17.1,14.6-19.9l14.2-4.5c2.1-0.7,4.4,0.1,5.7,1.8l24.1,32.6"/>
		<line class="st2" x1="48" y1="208.4" x2="48" y2="222.4"/>
		<line class="st2" x1="114" y1="208.4" x2="114" y2="222.4"/>
	</g>
</g>
</svg>
