<?xml version="1.0" encoding="utf-8"?>
<!-- Generator: Adobe Illustrator 25.4.1, SVG Export Plug-In . SVG Version: 6.00 Build 0)  -->
<svg version="1.1" id="icons" xmlns="http://www.w3.org/2000/svg" xmlns:xlink="http://www.w3.org/1999/xlink" x="0px" y="0px"
	 viewBox="0 0 256 256" style="enable-background:new 0 0 256 256;" xml:space="preserve">
<style type="text/css">
	.st0{fill:#EC5657;}
	.st1{fill:#FFFFFF;}
	.st2{fill:#240046;}
	.st3{fill:#EDEBE3;}
	.st4{fill:#F39191;}
</style>
<g>
	<g>
		<path class="st0" d="M161.8,44.1c1.7,1.7,1.6,4.4,0,6c-1.7,1.7-4.4,1.6-6,0c-1.7-1.7-1.6-4.4,0-6
			C157.4,42.4,160.1,42.4,161.8,44.1z"/>
	</g>
	<g>
		<ellipse class="st0" cx="206.9" cy="93.9" rx="4.3" ry="4.3"/>
	</g>
	<g>
		<ellipse class="st0" cx="207.7" cy="161.2" rx="4.3" ry="4.3"/>
	</g>
	<g>
		<path class="st0" d="M160.7,213.4c-2.3,0-4.2-1.9-4.2-4.3c0-2.3,1.9-4.2,4.3-4.2c2.3,0,4.2,1.9,4.2,4.3
			C165,211.5,163.1,213.4,160.7,213.4z"/>
	</g>
	<g>
		<path class="st0" d="M90.5,212.8c-1.6-1.7-1.6-4.4,0.1-6s4.4-1.6,6,0.1c1.6,1.7,1.6,4.4-0.1,6C94.9,214.5,92.2,214.5,90.5,212.8z"
			/>
	</g>
	<g>
		<path class="st0" d="M41.4,162.7c0-2.3,2-4.2,4.3-4.2s4.2,2,4.2,4.3s-2,4.2-4.3,4.2C43.3,166.9,41.4,165,41.4,162.7z"/>
	</g>
	<g>
		<path class="st0" d="M44.5,91.3c1.7-1.6,4.4-1.6,6,0.1s1.6,4.4-0.1,6c-1.7,1.6-4.4,1.6-6-0.1C42.8,95.7,42.8,93,44.5,91.3z"/>
	</g>
	<g>
		<path class="st0" d="M93.6,42.3c2.3,0,4.2,2,4.2,4.3s-2,4.2-4.3,4.2s-4.2-2-4.2-4.3C89.3,44.2,91.3,42.3,93.6,42.3z"/>
	</g>
	<g>
		<g>
			<path class="st1" d="M212,109.5h-12.9c-5.3,0-9.9-3.3-11.9-8.2c-0.1-0.2-0.2-0.5-0.3-0.7c-1.9-4.7-0.9-10,2.5-13.6l6.4-6.7
				c2.7-2.8,2.7-7.2,0-10l-13.4-14.1c-2.9-3-7.7-3-10.5,0l-5.3,5.6c-3.7,3.9-9.4,5-14.3,2.9l0,0c-4.7-2-7.7-6.6-7.7-11.7v-9.3
				c0-4-3.3-7.3-7.3-7.3h-18.6c-4,0-7.3,3.3-7.3,7.3v7.2c0,5.4-3.2,10.2-8.2,12.3c-0.2,0.1-0.3,0.1-0.5,0.2c-5,2.1-10.8,1-14.6-2.9
				L81.8,54c-3-3-7.8-3-10.8,0L56.4,68.7c-3,3-3,7.7,0,10.7L63,86c3.8,3.8,4.9,9.5,2.9,14.5l-0.3,0.8c-2,5-6.9,8.2-12.3,8.2h-9.1
				c-4.2,0-7.6,3.4-7.6,7.6v20.7c0,4.3,3.4,7.8,7.7,7.8h10.4c5.3,0,10.1,3.2,12,8.2c0.1,0.3,0.2,0.5,0.3,0.8c2,4.8,0.9,10.3-2.7,14
				l-6.4,6.6c-2.8,2.9-2.8,7.4,0,10.3l13.8,14.3c2.9,3,7.7,3,10.7,0l5.7-5.9c3.8-3.9,9.5-5,14.5-2.9l0.2,0.1c4.8,2,7.9,6.7,7.9,11.9
				v9.3c0,4.1,3.3,7.4,7.4,7.4h19.3c4.1,0,7.4-3.3,7.4-7.4v-7.9c0-5.3,3.2-10.2,8.2-12.2c0.2-0.1,0.4-0.2,0.7-0.3
				c5-2.1,10.8-1,14.6,2.9l6.4,6.4c3,3,7.8,3,10.8,0l14.6-14.7c2.9-3,2.9-7.7,0-10.7l-6.6-6.6c-3.8-3.8-4.9-9.5-2.9-14.4l0.3-0.8
				c2-5,6.9-8.2,12.3-8.2h9c4.2,0,7.6-3.4,7.6-7.6v-20.9C219.6,112.9,216.2,109.5,212,109.5z"/>
		</g>
	</g>
	<g>
		<g>
			<path class="st2" d="M137.2,221.6L137.2,221.6h-19.3c-5.2,0-9.4-4.2-9.4-9.4V193c0-1.1,0.9-2,2-2l0,0c1.1,0,2,0.9,2,2v19.3
				c0,3,2.4,5.4,5.4,5.4h19.3l0,0c1.4,0,2.8-0.6,3.8-1.6s1.6-2.4,1.6-3.8v-7.9c0-6.2,3.7-11.7,9.4-14.1l0.6-0.3
				c5.8-2.4,12.4-1.1,16.8,3.3l6.4,6.4c1.1,1.1,2.5,1.7,4,1.7l0,0c1.5,0,2.9-0.6,4-1.6l14.6-14.7c2.2-2.2,2.2-5.7,0-7.9l-6.6-6.6
				c-4.3-4.4-5.6-10.9-3.3-16.6l0.3-0.8c2.4-5.8,7.9-9.5,14.1-9.5l0,0h9l0,0c3.1,0,5.6-2.5,5.6-5.6v-20.9c0-1.5-0.6-2.9-1.6-4
				c-1.1-1.1-2.5-1.6-4-1.6H199c-6.1,0-11.5-3.7-13.7-9.5l-0.3-0.7c-2.2-5.4-1-11.6,2.9-15.8l6.4-6.7c1.9-2,1.9-5.2,0-7.3L181,57.5
				c-1-1.1-2.4-1.6-3.8-1.6l0,0c-1.5,0-2.8,0.6-3.8,1.6l-5.3,5.6c-4.2,4.5-10.9,5.8-16.5,3.4c-5.4-2.3-8.9-7.6-8.9-13.5v-9.3
				c0-2.9-2.4-5.3-5.3-5.3h-18.6c-2.9,0-5.3,2.4-5.3,5.3v7.2c0,6.2-3.7,11.8-9.4,14.1l-0.5,0.2c-5.8,2.4-12.4,1.1-16.8-3.3l-6.4-6.4
				c-1.1-1.1-2.5-1.7-4-1.7l0,0c-1.5,0-2.9,0.6-4,1.6L57.8,70.1c-2.2,2.2-2.2,5.7,0,7.9l6.6,6.6c4.3,4.4,5.6,10.9,3.3,16.6l-0.3,0.8
				c-2.4,5.7-7.9,9.5-14.1,9.5l0,0h-9.1l0,0c-3.1,0-5.6,2.5-5.6,5.6v20.7c0,3.2,2.6,5.8,5.7,5.8h20.4c1.1,0,2,0.9,2,2s-0.9,2-2,2
				l0,0H44.3c-5.4,0-9.7-4.4-9.7-9.8v-20.7c0-2.6,1-5,2.8-6.8s4.2-2.8,6.8-2.8l0,0h9.1l0,0c4.6,0,8.7-2.7,10.4-7l0.3-0.8
				c1.7-4.2,0.8-9-2.4-12.3L55,80.8c-3.7-3.7-3.7-9.8,0-13.5l14.7-14.7c1.8-1.8,4.2-2.8,6.8-2.8l0,0c2.6,0,5,1,6.8,2.8l6.4,6.4
				c3.3,3.3,8.1,4.3,12.4,2.5l0.5-0.2c4.2-1.7,6.9-5.8,6.9-10.4v-7.2c0-5.1,4.2-9.3,9.3-9.3h18.6c5.1,0,9.3,4.2,9.3,9.3V53
				c0,4.3,2.5,8.1,6.5,9.8c4.1,1.8,9,0.8,12-2.5l5.3-5.6c1.8-1.9,4.2-2.9,6.7-2.9l0,0c2.6,0,5,1,6.7,2.9l13.4,14.1
				c3.4,3.6,3.4,9.2,0,12.8l-6.4,6.7c-2.9,3-3.7,7.6-2.1,11.5l0.3,0.7c1.7,4.2,5.6,6.9,10,6.9H212c2.6,0,5,1,6.8,2.8
				s2.8,4.2,2.8,6.8v20.9c0,5.3-4.3,9.6-9.6,9.6l0,0h-9l0,0c-4.6,0-8.7,2.7-10.4,7l-0.3,0.8c-1.7,4.2-0.8,9,2.4,12.2l6.6,6.6
				c3.7,3.7,3.7,9.8,0,13.5l-14.6,14.7c-1.8,1.8-4.2,2.8-6.8,2.8l0,0c-2.6,0-5-1-6.8-2.8l-6.4-6.4c-3.3-3.3-8.1-4.3-12.4-2.5
				l-0.7,0.3c-4.2,1.7-6.9,5.8-6.9,10.4v7.9c0,2.5-1,4.9-2.8,6.6C142,220.6,139.7,221.6,137.2,221.6z"/>
		</g>
	</g>
	<g>
		<path class="st2" d="M80.4,181.2c-0.5,0-1-0.2-1.4-0.6c-0.8-0.8-0.8-2,0-2.8l5.7-5.7c0.8-0.8,2-0.8,2.8,0s0.8,2,0,2.8l-5.7,5.7
			C81.4,181,80.9,181.2,80.4,181.2z"/>
	</g>
	<g>
		<path class="st1" d="M85.7,186.9l-12.1-12.1c-0.2-0.2-0.5-0.2-0.6,0l-12,11.8l12.7,12.7l12-11.8C85.9,187.3,85.9,187,85.7,186.9z"
			/>
	</g>
	<g>
		<path class="st3" d="M85.7,186.9l-4.4-4.4L69,194.6l4.7,4.7l12-11.8C85.9,187.3,85.9,187,85.7,186.9z"/>
	</g>
	<g>
		<path class="st2" d="M73.8,201.3c-0.5,0-1-0.2-1.4-0.6c-0.8-0.8-0.8-2.1,0-2.8l10.9-10.7l-9.9-9.9L62.5,188
			c-0.8,0.8-2.1,0.8-2.8,0c-0.8-0.8-0.8-2.1,0-2.8l12-11.8c1-0.9,2.5-0.9,3.5,0l12.1,12.1c0.5,0.5,0.7,1.1,0.7,1.7
			c0,0.7-0.3,1.3-0.7,1.7l-12,11.8C74.8,201.1,74.3,201.3,73.8,201.3z"/>
	</g>
	<g>
		<path class="st0" d="M128.1,68.2c-33.5,0-60.6,27-60.6,60.2s27.1,60.2,60.6,60.2s60.6-27,60.6-60.2S161.6,68.2,128.1,68.2z
			 M128.1,173.5c-25,0-45.3-20.2-45.3-45.1s20.3-45.1,45.3-45.1s45.3,20.2,45.3,45.1S153.1,173.5,128.1,173.5z"/>
	</g>
	<g>
		<g>
			<path class="st4" d="M104.3,127.1c0-3.4,2.8-6.1,6.2-6.1c3.4,0,6.1,2.8,6.1,6.2s-2.8,6.1-6.2,6.1
				C107,133.3,104.3,130.5,104.3,127.1z"/>
		</g>
		<g>
			<path class="st4" d="M123.3,127.1c0-3.4,2.8-6.1,6.2-6.1s6.1,2.8,6.1,6.2s-2.8,6.1-6.2,6.1C126,133.3,123.3,130.5,123.3,127.1z"
				/>
		</g>
		<g>
			<path class="st4" d="M142.3,127.1c0-3.4,2.8-6.1,6.2-6.1s6.1,2.8,6.1,6.2s-2.8,6.1-6.2,6.1C145,133.3,142.3,130.5,142.3,127.1z"
				/>
		</g>
	</g>
</g>
</svg>
