<?xml version="1.0" encoding="utf-8"?>
<!-- Generator: Adobe Illustrator 25.4.1, SVG Export Plug-In . SVG Version: 6.00 Build 0)  -->
<svg version="1.1" id="icons" xmlns="http://www.w3.org/2000/svg" xmlns:xlink="http://www.w3.org/1999/xlink" x="0px" y="0px"
	 viewBox="0 0 256 256" style="enable-background:new 0 0 256 256;" xml:space="preserve">
<style type="text/css">
	.st0{fill:#FE4E60;}
	.st1{fill:#EC5657;}
	.st2{fill:#EDEBE3;}
	.st3{fill:#F39191;}
	.st4{fill:none;stroke:#240046;stroke-width:4;stroke-linecap:round;stroke-miterlimit:10;}
</style>
<g>
	<g>
		<path class="st0" d="M137.5,126.1v-46c0-0.9,0.8-1.7,1.7-1.7h18.9c0.9,0,1.7,0.8,1.7,1.7v46L137.5,126.1L137.5,126.1z"/>
		<path class="st1" d="M177.3,125.8v-32c0-0.9,0.8-1.7,1.7-1.7H198c0.9,0,1.7,0.8,1.7,1.7v32C199.7,125.8,177.3,125.8,177.3,125.8z"
			/>
		<path class="st2" d="M81.5,126c-21,0-38,17-38,38s17,38,38,38s38-17,38-38S102.5,126,81.5,126z M81.5,193.1
			c-16.1,0-29.1-13.1-29.1-29.1s13.1-29.1,29.1-29.1s29.1,13.1,29.1,29.1S97.6,193.1,81.5,193.1z"/>
		<path class="st3" d="M184.7,31v30.1c0,4.4,3.6,7.9,8,7.9l29.6-0.4L184.7,31z"/>
	</g>
	<g>
		<g>
			<circle class="st4" cx="81.5" cy="164.1" r="38"/>
			<line class="st4" x1="53.6" y1="193.5" x2="45.9" y2="201.2"/>
			<polyline class="st4" points="43.7,214.6 50.5,207.7 40.2,197.4 33.3,204.2 			"/>
		</g>
		<path class="st4" d="M82.5,115.1L82.7,35c0-2.2,1.8-3.9,3.9-3.9h97.7c0.4,0,0.8,0.2,1.1,0.5l36.7,37.6c0.3,0.3,0.4,0.7,0.4,1.1
			v150.9c0,2.2-1.8,3.9-3.9,3.9H87.2c-2.6,0-4.7-2.1-4.7-4.7l0-5.3"/>
		<path class="st4" d="M192.7,69.1h29.8c0.2,0,0.3-0.3,0.2-0.4L184.9,31c-0.2-0.2-0.4,0-0.4,0.2v29.8
			C184.5,65.4,188.2,69.1,192.7,69.1z"/>
		<line class="st4" x1="63.5" y1="164.1" x2="63.5" y2="180.1"/>
		<line class="st4" x1="81.5" y1="146.1" x2="81.5" y2="180.1"/>
		<line class="st4" x1="99.5" y1="156.1" x2="99.5" y2="180.1"/>
		<path class="st4" d="M97.5,118.1v-12c0-0.6,0.4-1,1-1h20c0.6,0,1,0.4,1,1v19"/>
		<path class="st4" d="M137.5,126.1v-47c0-0.6,0.4-1,1-1h20c0.6,0,1,0.4,1,1v47"/>
		<path class="st4" d="M177.5,126.1v-33c0-0.6,0.4-1,1-1h20c0.6,0,1,0.4,1,1v33"/>
		<line class="st4" x1="120.5" y1="136.1" x2="207.5" y2="136.1"/>
		<line class="st4" x1="131.5" y1="166.1" x2="180.5" y2="166.1"/>
		<line class="st4" x1="131.5" y1="182.1" x2="203.5" y2="182.1"/>
	</g>
</g>
</svg>
