<?xml version="1.0" encoding="utf-8"?>
<!-- Generator: Adobe Illustrator 25.4.1, SVG Export Plug-In . SVG Version: 6.00 Build 0)  -->
<svg version="1.1" id="icons" xmlns="http://www.w3.org/2000/svg" xmlns:xlink="http://www.w3.org/1999/xlink" x="0px" y="0px"
	 viewBox="0 0 256 256" style="enable-background:new 0 0 256 256;" xml:space="preserve">
<style type="text/css">
	.st0{fill:#FFFFFF;}
	.st1{fill:#EDEBE3;}
	.st2{fill:#240046;}
	.st3{fill:#FE4E60;}
	.st4{fill:#F9EEFF;}
	.st5{fill:#FE4E60;stroke:#240046;stroke-width:4;stroke-miterlimit:10;}
</style>
<g>
	<g>
		<g>
			<path class="st0" d="M211.9,188.5H44.1c-11.1,0-20.1-9-20.1-20.1V45.6c0-11.1,9-20.1,20.1-20.1h167.8c11.1,0,20.1,9,20.1,20.1
				v122.8C232,179.5,223,188.5,211.9,188.5z"/>
		</g>
		<g>
			<path class="st1" d="M211.9,178.5H44.1c-11.1,0-20.1-9-20.1-20.1v10c0,11.1,9,20.1,20.1,20.1h167.8c11.1,0,20.1-9,20.1-20.1v-10
				C232,169.5,223,178.5,211.9,178.5z"/>
		</g>
		<g>
			<path class="st2" d="M222.5,58.5h-189c-1.1,0-2-0.9-2-2s0.9-2,2-2h189c1.1,0,2,0.9,2,2S223.6,58.5,222.5,58.5z"/>
		</g>
		<g>
			<path class="st3" d="M211.2,44.5h-103c-1.1,0-2-0.9-2-2s0.9-2,2-2h103c1.1,0,2,0.9,2,2S212.4,44.5,211.2,44.5z"/>
		</g>
		<g>
			<circle class="st1" cx="46.3" cy="42.5" r="5"/>
		</g>
		<g>
			<circle class="st1" cx="66.2" cy="42.5" r="5"/>
		</g>
		<g>
			<circle class="st1" cx="86.2" cy="42.5" r="5"/>
		</g>
		<g>
			<path class="st2" d="M211.9,190.5h-25.8c-1.1,0-2-0.9-2-2s0.9-2,2-2h25.8c10,0,18.1-8.1,18.1-18.1V45.6c0-10-8.1-18.1-18.1-18.1
				H44.1c-10,0-18.1,8.1-18.1,18.1v122.8c0,10,8.1,18.1,18.1,18.1h24.7c1.1,0,2,0.9,2,2s-0.9,2-2,2H44.1c-12.2,0-22.1-9.9-22.1-22.1
				V45.6c0-12.2,9.9-22.1,22.1-22.1h167.8c12.2,0,22.1,9.9,22.1,22.1v122.8C234,180.6,224.1,190.5,211.9,190.5z"/>
		</g>
	</g>
	<g>
		<g>
			<path class="st2" d="M183.8,112.3h-5.5c-1.1,0-2-0.9-2-2s0.9-2,2-2h5.5c1.1,0,2,0.9,2,2S184.9,112.3,183.8,112.3z"/>
		</g>
		<g>
			<path class="st2" d="M199.4,112.3h-5.5c-1.1,0-2-0.9-2-2s0.9-2,2-2h5.5c1.1,0,2,0.9,2,2S200.5,112.3,199.4,112.3z"/>
		</g>
		<g>
			<path class="st2" d="M215,112.3h-5.5c-1.1,0-2-0.9-2-2s0.9-2,2-2h5.5c1.1,0,2,0.9,2,2S216.1,112.3,215,112.3z"/>
		</g>
	</g>
	<g>
		<g>
			<path class="st2" d="M44.8,112.3h-5.5c-1.1,0-2-0.9-2-2s0.9-2,2-2h5.5c1.1,0,2,0.9,2,2S45.9,112.3,44.8,112.3z"/>
		</g>
		<g>
			<path class="st2" d="M60.4,112.3h-5.5c-1.1,0-2-0.9-2-2s0.9-2,2-2h5.5c1.1,0,2,0.9,2,2S61.5,112.3,60.4,112.3z"/>
		</g>
		<g>
			<path class="st2" d="M76,112.3h-5.5c-1.1,0-2-0.9-2-2s0.9-2,2-2H76c1.1,0,2,0.9,2,2S77.1,112.3,76,112.3z"/>
		</g>
	</g>
	<g>
		<g>
			<g>
				<path class="st0" d="M155.5,150.4c-3.5,0-6.4-2.9-6.4-6.4v-27.5c0-11.7-9.5-21.1-21.1-21.1c-11.7,0-21.1,9.5-21.1,21.1V144
					c0,3.5-2.9,6.4-6.4,6.4s-6.4-2.9-6.4-6.4v-27.5c0-18.7,15.2-34,34-34c18.7,0,34,15.2,34,34V144
					C162,147.5,159.1,150.4,155.5,150.4z"/>
			</g>
		</g>
		<g>
			<g>
				<path class="st2" d="M155.5,152.4c-4.6,0-8.4-3.8-8.4-8.4v-27.5c0-10.6-8.6-19.1-19.1-19.1c-10.6,0-19.1,8.6-19.1,19.1V144
					c0,4.6-3.8,8.4-8.4,8.4s-8.4-3.8-8.4-8.4v-27.5c0-19.8,16.1-36,36-36c19.8,0,36,16.1,36,36V144
					C164,148.6,160.2,152.4,155.5,152.4z M128,93.3c12.8,0,23.1,10.4,23.1,23.1V144c0,2.4,2,4.4,4.4,4.4s4.4-2,4.4-4.4v-27.5
					c0-17.6-14.3-32-32-32s-32,14.3-32,32V144c0,2.4,2,4.4,4.4,4.4s4.4-2,4.4-4.4v-27.5C104.9,103.7,115.2,93.3,128,93.3z"/>
			</g>
		</g>
		<g>
			<path class="st0" d="M161.7,230.5H94.3c-8.8,0-15.9-7.1-15.9-15.9v-67.4c0-8.8,7.1-15.9,15.9-15.9h67.4c8.8,0,15.9,7.1,15.9,15.9
				v67.4C177.7,223.4,170.5,230.5,161.7,230.5z"/>
		</g>
		<g>
			<path class="st4" d="M168.1,225.1H87.9c-5.3,0-9.5-4.3-9.5-9.5v5.4c0,5.3,4.3,9.5,9.5,9.5h80.2c5.3,0,9.5-4.3,9.5-9.5v-5.4
				C177.7,220.8,173.4,225.1,168.1,225.1z"/>
		</g>
		<g>
			<path class="st3" d="M87.3,213.1v-64.5c0-4.6,3.8-8.4,8.4-8.4h64.5c4.6,0,8.4,3.8,8.4,8.4v64.5c0,4.6-3.8,8.4-8.4,8.4H95.7
				C91.1,221.5,87.3,217.8,87.3,213.1z"/>
		</g>
		<g>
			<path class="st2" d="M161.7,232.5H94.3c-9.9,0-17.9-8.1-17.9-17.9v-67.4c0-9.9,8.1-17.9,17.9-17.9h67.4c9.9,0,17.9,8.1,17.9,17.9
				v67.4C179.7,224.4,171.6,232.5,161.7,232.5z M94.3,133.2c-7.7,0-13.9,6.3-13.9,13.9v67.4c0,7.7,6.3,13.9,13.9,13.9h67.4
				c7.7,0,13.9-6.3,13.9-13.9v-67.4c0-7.7-6.3-13.9-13.9-13.9L94.3,133.2L94.3,133.2z"/>
		</g>
		<g>
			<path class="st5" d="M141.2,171.3c0-7.3-5.9-13.2-13.2-13.2s-13.2,5.9-13.2,13.2c0,5,2.7,9.3,6.8,11.5l-2.9,19H136l-2.8-18.4
				C137.9,181.3,141.2,176.7,141.2,171.3z"/>
		</g>
	</g>
</g>
</svg>
