<?xml version="1.0" encoding="utf-8"?>
<!-- Generator: Adobe Illustrator 26.0.3, SVG Export Plug-In . SVG Version: 6.00 Build 0)  -->
<svg version="1.1" id="Layer_1" xmlns="http://www.w3.org/2000/svg" xmlns:xlink="http://www.w3.org/1999/xlink" x="0px" y="0px"
	 viewBox="0 0 208.7 189.1" style="enable-background:new 0 0 208.7 189.1;" xml:space="preserve">
<style type="text/css">
	.st0{fill:#F5F3ED;}
	.st1{fill:#EDEBE3;}
	.st2{fill:#FFFFFF;}
	.st3{fill:none;stroke:#240046;stroke-width:4;stroke-linecap:round;stroke-miterlimit:10;}
	.st4{fill:#EC5657;}
	.st5{fill:#E93535;}
</style>
<g id="Layer_2_00000127722399928559674320000013315296113952485534_">
	<g id="icons">
		<path class="st0" d="M141.4,170.4h62.2c2.2,0,4,1.8,4,4v8.6c0,2.2-1.8,4-4,4h-62.2c-2.2,0-4-1.8-4-4v-8.6
			C137.4,172.2,139.2,170.4,141.4,170.4z"/>
		<path class="st0" d="M141.4,149.2h62.2c2.2,0,4,1.8,4,4v8.6c0,2.2-1.8,4-4,4h-62.2c-2.2,0-4-1.8-4-4v-8.6
			C137.4,151,139.2,149.2,141.4,149.2z"/>
		<path class="st0" d="M141.4,127.9h62.2c2.2,0,4,1.8,4,4v8.6c0,2.2-1.8,4-4,4h-62.2c-2.2,0-4-1.8-4-4V132
			C137.4,129.7,139.2,127.9,141.4,127.9z"/>
		<path class="st0" d="M7.4,170.4h62.2c2.2,0,4,1.8,4,4v8.6c0,2.2-1.8,4-4,4H7.4c-2.2,0-4-1.8-4-4v-8.6
			C3.4,172.2,5.2,170.4,7.4,170.4z"/>
		<path class="st0" d="M7.4,149.2h62.2c2.2,0,4,1.8,4,4v8.6c0,2.2-1.8,4-4,4H7.4c-2.2,0-4-1.8-4-4v-8.6C3.4,151,5.2,149.2,7.4,149.2
			z"/>
		<path class="st0" d="M7.4,127.9h62.2c2.2,0,4,1.8,4,4v8.6c0,2.2-1.8,4-4,4H7.4c-2.2,0-4-1.8-4-4V132
			C3.4,129.7,5.2,127.9,7.4,127.9z"/>
		<path class="st0" d="M7.4,106.7h62.2c2.2,0,4,1.8,4,4v8.6c0,2.2-1.8,4-4,4H7.4c-2.2,0-4-1.8-4-4v-8.6
			C3.4,108.5,5.2,106.7,7.4,106.7z"/>
		<path class="st1" d="M69.6,118.3H7.4c-2.2,0-4-1.8-4-4v5c0,2.2,1.8,4,4,4h62.2c2.2,0,4-1.7,4-3.9c0,0,0,0,0-0.1v-5
			C73.6,116.5,71.8,118.3,69.6,118.3C69.6,118.3,69.6,118.3,69.6,118.3z"/>
		<path class="st1" d="M69.6,139.6H7.4c-2.2,0-4-1.8-4-4v5c0,2.2,1.8,4,4,4h62.2c2.2,0,4-1.7,4-3.9c0,0,0,0,0-0.1v-5
			C73.6,137.8,71.8,139.6,69.6,139.6C69.6,139.6,69.6,139.6,69.6,139.6z"/>
		<path class="st1" d="M69.6,160.8H7.4c-2.2,0-4-1.8-4-4v5c0,2.2,1.8,4,4,4h62.2c2.2,0,4-1.7,4-3.9c0,0,0,0,0-0.1v-5
			C73.6,159,71.8,160.8,69.6,160.8C69.6,160.8,69.6,160.8,69.6,160.8z"/>
		<path class="st1" d="M69.6,182.1H7.4c-2.2,0-4-1.8-4-4c0,0,0,0,0-0.1v5c0,2.2,1.7,4,3.9,4c0,0,0,0,0.1,0h62.2c2.2,0,4-1.7,4.1-3.9
			c0,0,0-0.1,0-0.1v-5c0,2.2-1.7,4-3.9,4.1C69.7,182.1,69.6,182.1,69.6,182.1z"/>
		<path class="st1" d="M203.6,139.6h-62.2c-2.2,0-4-1.7-4-3.9c0,0,0,0,0-0.1v5c0,2.2,1.8,4,4,4c0,0,0,0,0.1,0h62.1c2.2,0,4-1.8,4-4
			v-5C207.6,137.8,205.8,139.6,203.6,139.6z"/>
		<path class="st1" d="M203.6,160.8h-62.2c-2.2,0-4-1.7-4-3.9c0,0,0,0,0-0.1v5c0,2.2,1.8,4,4,4c0,0,0,0,0.1,0h62.1c2.2,0,4-1.8,4-4
			v-5C207.6,159,205.8,160.8,203.6,160.8z"/>
		<path class="st1" d="M203.6,182.1h-62.2c-2.2,0-4-1.7-4.1-3.9c0,0,0-0.1,0-0.1v5c0,2.2,1.7,4,3.9,4.1c0,0,0.1,0,0.1,0h62.1
			c2.2,0,4-1.8,4-4c0,0,0,0,0-0.1v-5C207.6,180.2,205.8,182.1,203.6,182.1C203.6,182.1,203.6,182.1,203.6,182.1z"/>
		<path class="st1" d="M162.8,8.3H47.3c-2.3,0-4.2-1.9-4.2-4.2l0,0C43.1,1.9,45,0,47.3,0h115.5c2.3,0,4.2,1.8,4.2,4.1c0,0,0,0,0,0
			l0,0C167,6.5,165.1,8.3,162.8,8.3C162.8,8.3,162.8,8.3,162.8,8.3z"/>
		<path class="st2" d="M60.4,8.4v24c0,24.6,12,47.7,32.1,61.9l0,0c2.7,2.7,2.7,7,0,9.7c0,0,0,0,0,0l0,0
			c-20.2,14.5-32.1,37.9-32.1,62.8V187H150v-20.3c0-24.9-12-48.2-32.2-62.8l0,0c-2.7-2.7-2.7-7,0-9.7c0,0,0,0,0,0l0,0
			C138,80.1,150,57,150,32.3v-24L60.4,8.4z"/>
		<path class="st1" d="M98.1,103.9c2.7-2.7,2.7-7,0-9.7C77.9,80.1,65.9,57,65.9,32.3v-24h-5.5v24c0,24.6,12,47.7,32.1,61.9
			c2.7,2.7,2.7,7,0,9.7c0,0,0,0,0,0c-20.2,14.5-32.1,37.9-32.1,62.8V187h5.5v-20.3C65.9,141.8,77.9,118.5,98.1,103.9z"/>
		<path class="st3" d="M193.6,119.1c13.8-13.8,13.8-36.3,0-50.1c-6.6-6.6-15.7-10.4-25.1-10.4"/>
		<path class="st3" d="M150,18.5v14.7c0,24.6-12,47.7-32.1,61.9l0,0c-2.7,2.7-2.7,7,0,9.7c0,0,0,0,0,0l0,0
			c20.2,14.5,32.1,37.9,32.1,62.8v11"/>
		<path class="st3" d="M60.4,178.7v-14.7c0-24.6,12-47.7,32.1-61.9l0,0c2.7-2.7,2.7-7,0-9.7c0,0,0,0,0,0l0,0
			C72.3,77.8,60.4,54.4,60.4,29.6v-11"/>
		<line class="st3" x1="43.1" y1="186.7" x2="167" y2="186.7"/>
		<line class="st3" x1="4.3" y1="123.3" x2="57.9" y2="123.3"/>
		<line class="st3" x1="4.3" y1="144.6" x2="54.2" y2="144.6"/>
		<line class="st3" x1="4.3" y1="165.8" x2="53.3" y2="165.8"/>
		<line class="st3" x1="2" y1="187.1" x2="206.7" y2="187.1"/>
		<line class="st3" x1="156.8" y1="165.8" x2="206.7" y2="165.8"/>
		<line class="st3" x1="156.8" y1="144.6" x2="206.7" y2="144.6"/>
		<line class="st3" x1="42.7" y1="9.3" x2="167" y2="9.3"/>
		<path class="st1" d="M69,178.4h71.9c-0.2-13.4-7.3-25.8-18.8-32.7l-17.2-10.4l-17.2,10.4C76.3,152.6,69.2,164.9,69,178.4L69,178.4
			z"/>
		<circle class="st4" cx="168.5" cy="94.1" r="26.5"/>
		<path class="st5" d="M178,69.3c11.5,9.1,13.5,25.7,4.4,37.2c-7.2,9.1-19.5,12.5-30.4,8.3c11.5,9.1,28.1,7.1,37.2-4.4
			s7.1-28.1-4.4-37.2C182.7,71.6,180.5,70.3,178,69.3z"/>
		<path class="st3" d="M163.4,100.1v-0.2c0,2.4,1.9,4.3,4.3,4.3h1.8c2.4,0,4.3-1.9,4.3-4.3l0,0c0-1.3-0.6-2.5-1.6-3.2l-6.4-4.8
			c-1-0.8-1.6-2-1.6-3.2l0,0c0-2.4,1.9-4.3,4.3-4.3h1.8c2.4,0,4.3,1.9,4.3,4.3v-0.2"/>
		<line class="st3" x1="168.9" y1="80.9" x2="168.9" y2="82.9"/>
		<line class="st3" x1="168.9" y1="105.5" x2="168.9" y2="107.6"/>
		<path class="st1" d="M75.5,53.7c0,16.8,13.6,30.4,30.5,30.4c16.8,0,30.4-13.6,30.4-30.4C136.4,36.8,75.5,36.8,75.5,53.7z"/>
		<line class="st3" x1="104.7" y1="87.8" x2="104.7" y2="114.6"/>
		<line class="st3" x1="104.7" y1="133.1" x2="104.7" y2="123.8"/>
	</g>
</g>
</svg>
