<?xml version="1.0" encoding="utf-8"?>
<!-- Generator: Adobe Illustrator 26.0.3, SVG Export Plug-In . SVG Version: 6.00 Build 0)  -->
<svg version="1.1" id="Layer_1" xmlns="http://www.w3.org/2000/svg" xmlns:xlink="http://www.w3.org/1999/xlink" x="0px" y="0px"
	 viewBox="0 0 219 194" style="enable-background:new 0 0 219 194;" xml:space="preserve">
<style type="text/css">
	.st0{fill:#EC5657;}
	.st1{fill:#F39191;}
	.st2{fill:#EDEBE3;}
	.st3{fill:none;stroke:#240046;stroke-width:4;stroke-linecap:round;stroke-miterlimit:10;}
</style>
<g id="Layer_2_00000093168518355074250090000018306198984490130623_">
	<g id="icons">
		<g>
			<g>
				<path class="st0" d="M174.5,62.5V24.1c0-0.9,0.7-1.6,1.6-1.6l0,0h17.8c0.9,0,1.6,0.7,1.6,1.6v0v38.4H174.5z"/>
				<path class="st1" d="M134.5,63.5V38.1c0-0.9,0.7-1.6,1.6-1.6l0,0h17.8c0.9,0,1.6,0.7,1.6,1.6v0v25.4H134.5z"/>
				<path class="st2" d="M113.9,42.5H96.1c-0.9,0-1.6,0.7-1.6,1.6v0v2.4h14.4c0.9,0,1.6,0.7,1.6,1.6v0v14.4h5V44.1
					C115.5,43.2,114.8,42.5,113.9,42.5L113.9,42.5z"/>
				<path class="st2" d="M45.6,38.9c-2.9-1.1-6-1.2-9-0.4c8.3,2.1,13.3,10.5,11.2,18.8c-1.4,5.5-5.7,9.8-11.2,11.2
					c8.3,2.2,16.7-2.8,18.9-11c0.4-1.4,0.5-2.9,0.5-4.4C55.7,46.7,51.6,41.1,45.6,38.9z"/>
				<path class="st2" d="M193,124.1c-2.6-1-5.4-1.1-8-0.4c7.3,1.9,11.7,9.4,9.8,16.7c-1.3,4.8-5,8.6-9.8,9.8
					c7.3,1.9,14.8-2.4,16.8-9.7c0.3-1.3,0.5-2.6,0.5-3.9C202,131,198.3,126,193,124.1z"/>
				<path class="st2" d="M113,124.1c-2.6-1-5.4-1.1-8-0.4c7.3,1.9,11.7,9.4,9.8,16.7c-1.3,4.8-5,8.6-9.8,9.8
					c7.3,1.9,14.8-2.4,16.8-9.7c0.3-1.3,0.5-2.6,0.5-3.9C122,131,118.3,126,113,124.1z"/>
				<path class="st0" d="M2.5,144.5V88.6c0-4.3,2.5-8.2,6.4-10l8.7-4.1c2.7-1.2,5.6-2.5,7.4-0.1l8.1,8.6l8.3,9.7l15.1-19.9
					c1.8-1.9,4.6-2.4,7-1.3l50.1,0.5c2.3,1,4.7,12-5.1,15.8c-13.8,5.3-45.9,5.2-45.9,7.9v48.8H2.5z"/>
			</g>
			<g>
				<g>
					<circle class="st3" cx="108" cy="137" r="15"/>
					<path class="st3" d="M137,192v-20.6c0-4.5-2.9-8.4-7.2-9.8l-7.2-2.3"/>
					<path class="st3" d="M80,192v-20.5c0-4.5,2.9-8.4,7.2-9.8l6.9-2.2"/>
				</g>
				<g>
					<circle class="st3" cx="188" cy="137" r="15"/>
					<path class="st3" d="M217,192v-20.6c0-4.5-2.9-8.4-7.2-9.8l-7.2-2.3"/>
					<path class="st3" d="M160,192v-20.5c0-4.5,2.9-8.4,7.2-9.8l6.9-2.2"/>
				</g>
				<path class="st3" d="M75,61V9.1C75,5.2,78.2,2,82.1,2l0,0h126.8c3.9,0,7.1,3.2,7.1,7.1c0,0,0,0,0,0v91.8c0,3.9-3.2,7.1-7.1,7.1
					l0,0H82.1c-3.9,0-7.1-3.2-7.1-7.1c0,0,0,0,0,0"/>
				<g>
					<circle class="st3" cx="40.5" cy="53.5" r="15.5"/>
					<path class="st3" d="M2,147V89.4c0-5.9,3.8-11.2,9.5-13l9.6-3c1.2-0.4,2.6,0,3.5,0.9l8.1,8.7"/>
					<path class="st3" d="M39.5,95.2l15.7-21.3c1-1.1,2.3-1.7,3.7-1.9h54.2c1.4,0.5,2.5,1.6,2.9,3.1v0.6c-0.3,6.7-5.3,12.3-12,13.3
						l-42,5.6V147"/>
					<line class="st3" x1="17" y1="99" x2="17" y2="122"/>
				</g>
				<path class="st3" d="M95,62V43.4c0-0.2,0.2-0.4,0.4-0.4l0,0h19.1c0.2,0,0.4,0.2,0.4,0.4l0,0V62"/>
				<path class="st3" d="M135,62V35.4c0-0.2,0.2-0.4,0.4-0.4l0,0h19.1c0.2,0,0.4,0.2,0.4,0.4l0,0V62"/>
				<path class="st3" d="M175,62V22.4c0-0.2,0.2-0.4,0.4-0.4l0,0h19.1c0.2,0,0.4,0.2,0.4,0.4c0,0,0,0,0,0V62"/>
				<line class="st3" x1="126" y1="72" x2="207" y2="72"/>
			</g>
		</g>
	</g>
</g>
</svg>
