<?xml version="1.0" encoding="utf-8"?>
<!-- Generator: Adobe Illustrator 25.4.1, SVG Export Plug-In . SVG Version: 6.00 Build 0)  -->
<svg version="1.1" id="icons" xmlns="http://www.w3.org/2000/svg" xmlns:xlink="http://www.w3.org/1999/xlink" x="0px" y="0px"
	 viewBox="0 0 256 256" style="enable-background:new 0 0 256 256;" xml:space="preserve">
<style type="text/css">
	.st0{fill:#EDEBE3;}
	.st1{fill:#FE4E60;}
	.st2{fill:none;stroke:#240046;stroke-width:4;stroke-linecap:round;stroke-miterlimit:10;}
</style>
<g>
	<g>
		<path class="st0" d="M169,66.2c-1.2,0-2.4,0.2-3.5,0.5c5.9,1.6,10.3,6.9,10.3,13.3s-4.4,11.8-10.3,13.3c1.1,0.3,2.3,0.5,3.5,0.5
			c7.6,0,13.8-6.2,13.8-13.8S176.6,66.2,169,66.2z"/>
		<path class="st0" d="M128.4,96.7c-1.2,0-2.3,0.2-3.3,0.4c5.7,1.5,9.8,6.6,9.8,12.7s-4.2,11.2-9.8,12.7c1.1,0.3,2.2,0.4,3.3,0.4
			c7.3,0,13.1-5.9,13.1-13.1C141.6,102.6,135.7,96.7,128.4,96.7z"/>
		<path class="st0" d="M86.6,66.8c-1.2,0-2.3,0.2-3.3,0.4c5.7,1.5,9.9,6.6,9.9,12.8S89,91.3,83.3,92.8c1.1,0.3,2.2,0.4,3.3,0.4
			c7.3,0,13.2-5.9,13.2-13.2S93.9,66.8,86.6,66.8z"/>
		<path class="st1" d="M91.5,200.5v-56.8c0-4.4,2.5-8.4,6.4-10.2l8.8-4.2c2.6-1.2,5.8-0.4,7.5,2l10.5,14.6l15-15.8
			c1.8-1.9,4.5-2.4,6.9-1.4l8.1,3.7c4.8,2.2,7.9,7.1,7.9,12.5v55.6L91.5,200.5L91.5,200.5z"/>
	</g>
	<g>
		<circle class="st2" cx="127" cy="110" r="15"/>
		<path class="st2" d="M163,201v-57.4c0-5.7-3.7-10.8-9.2-12.5l-9.2-2.9c-1.2-0.4-2.5,0-3.3,0.9L131,140"/>
		<path class="st2" d="M90,201v-57.4c0-5.7,3.7-10.8,9.2-12.5l9-2.8c1.3-0.4,2.8,0.1,3.6,1.2l15.2,20.6"/>
		<line class="st2" x1="106" y1="154" x2="106" y2="176"/>
		<line class="st2" x1="148" y1="154" x2="148" y2="176"/>
		<circle class="st2" cx="169" cy="80" r="15"/>
		<path class="st2" d="M205,171v-57.4c0-5.7-3.7-10.8-9.2-12.5l-9.2-2.9c-1.2-0.4-2.5,0-3.3,0.9L173,110"/>
		<path class="st2" d="M150.2,98.2c1.3-0.4,2.8,0.1,3.6,1.2L169,120"/>
		<line class="st2" x1="190" y1="124" x2="190" y2="146"/>
		<circle class="st2" cx="86" cy="80" r="15"/>
		<path class="st2" d="M49,171v-57.4c0-5.7,3.7-10.8,9.2-12.5l9.2-2.9c1.2-0.4,2.5,0,3.3,0.9L81,110"/>
		<path class="st2" d="M104.4,98.2c-1.3-0.4-2.8,0.1-3.6,1.2L85.7,120"/>
		<line class="st2" x1="64" y1="124" x2="64" y2="146"/>
		<g>
			<circle class="st2" cx="128" cy="128" r="107"/>
			<line class="st2" x1="21" y1="128" x2="35" y2="128"/>
			<line class="st2" x1="219" y1="128" x2="233" y2="128"/>
			<line class="st2" x1="127" y1="234" x2="127" y2="220"/>
			<line class="st2" x1="127" y1="36" x2="127" y2="22"/>
		</g>
	</g>
</g>
</svg>
