<?xml version="1.0" encoding="utf-8"?>
<!-- Generator: Adobe Illustrator 26.0.3, SVG Export Plug-In . SVG Version: 6.00 Build 0)  -->
<svg version="1.1" id="Layer_1" xmlns="http://www.w3.org/2000/svg" xmlns:xlink="http://www.w3.org/1999/xlink" x="0px" y="0px"
	 viewBox="0 0 204 204" style="enable-background:new 0 0 204 204;" xml:space="preserve">
<style type="text/css">
	.st0{fill:#EC5657;}
	.st1{fill:#F39191;}
	.st2{fill:#EDEBE3;}
	.st3{fill:none;stroke:#240046;stroke-width:4;stroke-linecap:round;stroke-miterlimit:10;}
</style>
<g id="Layer_2_00000003097644231658256410000010314489442770019721_">
	<g id="icons">
		<circle class="st0" cx="127" cy="140" r="8.5"/>
		<circle class="st1" cx="148" cy="106" r="8.5"/>
		<circle class="st0" cx="89" cy="69" r="8.5"/>
		<path class="st2" d="M103.1,1.7c8.6,0,17.1,1.2,25.4,3.4c-53.7,14-86,68.9-72,122.6c9.2,35.3,36.7,62.8,72,72
			c-53.8,14-108.7-18.2-122.8-72S23.9,19,77.7,4.9C86,2.8,94.5,1.7,103.1,1.7L103.1,1.7z"/>
		<circle class="st3" cx="102" cy="102" r="100"/>
		<circle class="st3" cx="147.5" cy="105.5" r="8.5"/>
		<circle class="st3" cx="88.5" cy="68.5" r="8.5"/>
		<circle class="st3" cx="126.5" cy="139.5" r="8.5"/>
		<path class="st3" d="M77.6,52.2c-7.8-12.3-13.3-25.8-16.4-40"/>
		<path class="st3" d="M130.4,98.8c-10.3-4.8-19.8-11-28.4-18.3"/>
		<path class="st3" d="M199.7,109.6c-5.4,0.7-10.8,1-16.2,1c-6.3,0-12.5-0.5-18.7-1.4"/>
		<path class="st3" d="M108.6,129.7c-32.1-15.3-69.2-16.2-102-2.6"/>
		<path class="st3" d="M29.1,164.1c12.1-7.8,22.8-17.6,31.6-29c7.8-10.1,14-21.3,18.4-33.3c1.8-5,3.3-10,4.5-15.2"/>
		<path class="st3" d="M162.9,179.7c-2.7-4.7-5.8-9.2-9.1-13.4c-4.1-5.3-8.7-10.3-13.6-14.9"/>
		<path class="st3" d="M115.3,153.1c-17.7,18.2-38.3,30.8-59,36.5"/>
		<path class="st3" d="M139.4,122.2c-0.6,1.1-1.3,2.2-1.9,3.2"/>
		<path class="st3" d="M158.6,21.1c4.5,20.7,3,44.4-4.7,68.1"/>
		<path class="st3" d="M105.3,60.8c20.7-11.2,37.4-26.3,48.3-43.2"/>
		<path class="st3" d="M6.6,79.3c20.2,2.6,40.8,1.4,60.6-3.7c1.2-0.3,2.4-0.6,3.6-1"/>
	</g>
</g>
</svg>
