<?xml version="1.0" encoding="utf-8"?>
<!-- Generator: Adobe Illustrator 26.0.3, SVG Export Plug-In . SVG Version: 6.00 Build 0)  -->
<svg version="1.1" id="Layer_1" xmlns="http://www.w3.org/2000/svg" xmlns:xlink="http://www.w3.org/1999/xlink" x="0px" y="0px"
	 viewBox="0 0 218.7 218.7" style="enable-background:new 0 0 218.7 218.7;" xml:space="preserve">
<style type="text/css">
	.st0{fill:#EC5657;}
	.st1{fill:#F5F3ED;}
	.st2{fill:none;stroke:#240046;stroke-width:4;stroke-linecap:round;stroke-miterlimit:10;}
</style>
<g id="Layer_2_00000149370489753931206070000018090283238386659732_">
	<g id="icons">
		<circle class="st0" cx="188.1" cy="37.3" r="4.5"/>
		<path class="st1" d="M108.3,47.8c-2.1,0-4.2,0.3-6.3,0.8c13.3,3.5,21.3,17.1,17.8,30.4c-2.3,8.7-9.1,15.6-17.8,17.8
			c2.1,0.6,4.2,0.8,6.3,0.8c13.8,0,24.9-11.2,24.9-24.9S122.1,47.8,108.3,47.8z"/>
		<path class="st0" d="M47.6,171.8v-41.1c0-8,3.7-17.5,10.4-20.9l15.8-5.3c4.6-2.3,10.3-0.7,13.1,3.6l20.2,26.4l24-28.6
			c3-3.4,7.9-4.4,12-2.5l16.4,6.3c8.4,4,11.3,13.2,11.3,23v39L47.6,171.8z"/>
		<circle class="st2" cx="109.1" cy="72.3" r="25"/>
		<path class="st2" d="M170.1,171.3V128c0-9.5-6.2-18-15.3-20.8l-15.4-4.8c-2-0.6-4.1-0.1-5.6,1.4L116.7,122"/>
		<path class="st2" d="M48.1,171.3V128c0-9.5,6.2-18,15.3-20.8l15-4.7c2.2-0.7,4.6,0.1,6,1.9l25.3,34.2"/>
		<polyline class="st2" points="181.1,15.3 181.1,30.3 166.1,30.3 		"/>
		<path class="st2" d="M213.6,83.7c14.2,57.6-21,115.7-78.6,129.9C77.4,227.7,19.2,192.6,5.1,135S26.1,19.2,83.6,5.1
			c34-8.4,70,0.4,96.4,23.4"/>
		<path class="st2" d="M204.9,60.4c2,4,3.8,8.1,5.4,12.3"/>
		<path class="st2" d="M194.2,43.7c1.9,2.5,3.7,5,5.4,7.7"/>
	</g>
</g>
</svg>
