<?xml version="1.0" encoding="utf-8"?>
<!-- Generator: Adobe Illustrator 26.0.3, SVG Export Plug-In . SVG Version: 6.00 Build 0)  -->
<svg version="1.1" id="Layer_1" xmlns="http://www.w3.org/2000/svg" xmlns:xlink="http://www.w3.org/1999/xlink" x="0px" y="0px"
	 viewBox="0 0 191 224.4" style="enable-background:new 0 0 191 224.4;" xml:space="preserve">
<style type="text/css">
	.st0{fill:#EDEBE3;}
	.st1{fill:#EC5657;}
	.st2{fill:none;stroke:#240046;stroke-width:4;stroke-linecap:round;stroke-miterlimit:10;}
</style>
<g id="Layer_2_00000031195058184682150770000003066646482940204469_">
	<g id="icons">
		<path class="st0" d="M89.6,37.6c27.1,3.5,48,26.9,48,55.3c0,15.6-6.5,30.6-17.9,41.2c-4.6,4.2-7.2,10.1-7.2,16.3v22.1h14v-22.1
			c0-6.2,2.6-12.1,7.2-16.3c11.5-10.6,18-25.5,17.9-41.2C151.6,59.8,123.1,33.4,89.6,37.6z"/>
		<path class="st0" d="M123.4,173.5l-4.9-0.1v21.3c0,5.4-4.4,9.8-9.8,9.8h-14c-0.1,0-0.2,0.1-0.2,0.2l0,0v4.8c0,0.2-0.1,0.4-0.2,0.5
			c-2.3,2.2-3.6,5.2-3.5,8.4l0.1,3.1h8.5c1.7,0,3.1-1.4,3.1-3.1v-7.8h16.4c4.2,0,7.6-3.4,7.6-7.6v-26.2
			C126.5,174.9,125.1,173.5,123.4,173.5z"/>
		<circle class="st1" cx="95" cy="96" r="36.5"/>
		<circle class="st2" cx="94.5" cy="95.5" r="36.5"/>
		<path class="st2" d="M86,106L86,106c0,3.9,3.1,7,7,7h3c3.9,0,7-3.1,7-7l0,0c0-2.1-1-4.1-2.7-5.4l-10.6-8C88,91.3,87,89.3,87,87.2
			v-0.1c0-3.9,3.1-7,7-7h3c3.9,0,7,3.1,7,7l0,0"/>
		<line class="st2" x1="95" y1="74" x2="95" y2="78"/>
		<line class="st2" x1="95" y1="115" x2="95" y2="119"/>
		<path class="st2" d="M85,211v1.4c0,5.5,4.5,10,10,9.9h0.1c5.5,0,10-4.4,10-9.9V211h14.1c2.8,0,5.4-1.7,6.6-4.3l0.5-1.1
			c1.2-2.6,1.8-5.5,1.8-8.4v-17.8c0-2.4-2-4.4-4.4-4.4c0,0,0,0,0,0H68.4c-2.4,0-4.4,2-4.4,4.4c0,0,0,0,0,0v18.1c0,3,0.6,5.9,1.9,8.6
			l1.5,3.3c0.5,1,1.5,1.7,2.6,1.7l3.8-0.1"/>
		<path class="st2" d="M126,166v-10.3c0-7.2,2.9-14.2,8.2-19.1c11.6-10.8,18.1-25.9,18.1-41.7c0-39.5-40.1-69.7-81.8-52.1
			c-12.3,5.2-22.1,14.9-27.4,27.1c-11.1,25.9-3.8,51.1,12.7,66.6c5.3,5,8.3,12,8.3,19.3V166"/>
		<line class="st2" x1="74" y1="186" x2="103" y2="186"/>
		<line class="st2" x1="89" y1="199" x2="117" y2="199"/>
		<line class="st2" x1="95" y1="2" x2="95" y2="25"/>
		<line class="st2" x1="141.5" y1="14.2" x2="130.1" y2="34.1"/>
		<line class="st2" x1="175.7" y1="48" x2="155.8" y2="59.5"/>
		<line class="st2" x1="189" y1="95" x2="166" y2="95"/>
		<line class="st2" x1="176.1" y1="140.9" x2="156.3" y2="129.4"/>
		<line class="st2" x1="15.3" y1="141.5" x2="35.2" y2="130.1"/>
		<line class="st2" x1="2" y1="96" x2="25" y2="96.1"/>
		<line class="st2" x1="15" y1="48.7" x2="34.8" y2="60.2"/>
		<line class="st2" x1="48.9" y1="14.6" x2="60.3" y2="34.5"/>
	</g>
</g>
</svg>
