<?xml version="1.0" encoding="utf-8"?>
<!-- Generator: Adobe Illustrator 26.0.3, SVG Export Plug-In . SVG Version: 6.00 Build 0)  -->
<svg version="1.1" id="Layer_1" xmlns="http://www.w3.org/2000/svg" xmlns:xlink="http://www.w3.org/1999/xlink" x="0px" y="0px"
	 viewBox="0 0 203.7 209.1" style="enable-background:new 0 0 203.7 209.1;" xml:space="preserve">
<style type="text/css">
	.st0{fill:#EDEBE3;}
	.st1{fill:#EC5657;}
	.st2{fill:none;stroke:#240046;stroke-width:4;stroke-linecap:round;stroke-miterlimit:10;}
</style>
<g id="Layer_2_00000139287102652935323090000003127367636435926454_">
	<g id="icons">
		<path class="st0" d="M106.7,2.4C54.4,2.4,12.1,44.7,12.1,97s42.4,94.6,94.6,94.6s94.6-42.4,94.6-94.6S159,2.4,106.7,2.4
			C106.7,2.4,106.7,2.4,106.7,2.4z M106.7,172.4c-41.6,0-75.4-33.8-75.4-75.4s33.8-75.4,75.4-75.4s75.4,33.8,75.4,75.4c0,0,0,0,0,0
			C182.1,138.6,148.3,172.4,106.7,172.4L106.7,172.4L106.7,172.4z"/>
		
			<rect x="9.2" y="176.5" transform="matrix(0.7071 -0.7071 0.7071 0.7071 -129.3045 68.8973)" class="st1" width="18.6" height="28.1"/>
		<path class="st0" d="M139.4,103.2l-16.2-6.4l-5.4,5.4l12.6,5c3.5,1.4,5.8,4.7,5.8,8.5v26.7l9,0.6v-31.4
			C145.2,107.9,142.9,104.5,139.4,103.2z"/>
		<path class="st0" d="M104.7,46.2c-1.7,0-3.4,0.2-5,0.7c10.6,2.7,16.9,13.5,14.2,24.1c-1.8,6.9-7.2,12.4-14.2,14.2
			c10.6,2.8,21.4-3.5,24.1-14.1s-3.5-21.4-14.1-24.1C108.1,46.4,106.4,46.2,104.7,46.2z"/>
		<circle class="st2" cx="106.7" cy="97" r="95"/>
		<path class="st2" d="M142.8,32.1c17.4,8.3,30.2,24,35.1,42.7"/>
		<line class="st2" x1="41" y1="166.6" x2="26.2" y2="181.4"/>
		<polyline class="st2" points="2,187.2 15.1,174 35,193.9 21.9,207.1 		"/>
		<circle class="st2" cx="104.7" cy="66" r="21"/>
		<path class="st2" d="M144.7,142v-28.3c0-6.2-4-11.8-10-13.6l-10.1-3.2c-1.3-0.4-2.7,0-3.6,1l-11.2,11.9"/>
		<path class="st2" d="M65.7,142v-28.2c0-6.2,4-11.8,10-13.6l9.7-3c1.4-0.5,3,0.1,3.9,1.3l16.5,22.2l-0.3,23.3"/>
	</g>
</g>
</svg>
