<?xml version="1.0" encoding="utf-8"?>
<!-- Generator: Adobe Illustrator 26.0.3, SVG Export Plug-In . SVG Version: 6.00 Build 0)  -->
<svg version="1.1" id="Layer_1" xmlns="http://www.w3.org/2000/svg" xmlns:xlink="http://www.w3.org/1999/xlink" x="0px" y="0px"
	 viewBox="0 0 189 221" style="enable-background:new 0 0 189 221;" xml:space="preserve">
<style type="text/css">
	.st0{fill:#FFFFFF;}
	.st1{fill:#F9EEFF;}
	.st2{fill:#EDEBE3;}
	.st3{fill:none;stroke:#240046;stroke-width:4;stroke-linecap:round;stroke-miterlimit:10;}
	.st4{fill:#F5F3ED;}
	.st5{fill:#EC5657;}
</style>
<g id="Layer_2_00000001663350056845696100000008394246274630692272_">
	<g id="icons">
		<path class="st0" d="M161,219H27c-10.6,0-20.2-6.3-24.4-16l0,0c-0.8-1.9,0-4,1.9-4.9c0.5-0.2,1-0.3,1.5-0.3h176
			c2,0,3.7,1.6,3.7,3.7c0,0.5-0.1,1-0.3,1.5l0,0C181.2,212.7,171.6,219,161,219z"/>
		<path class="st1" d="M161,213.5H27c-10,0-19.1-5.6-23.7-14.5c-1,1.1-1.3,2.6-0.7,4l0,0c4.2,9.7,13.8,16,24.4,16h134
			c10.6,0,20.2-6.3,24.4-16l0,0c0.6-1.4,0.3-2.9-0.7-4C180.2,207.9,171,213.5,161,213.5z"/>
		<path class="st0" d="M35.1,114.1c3.8-5.4,9.2-9.4,15.5-11.5L63.8,98l13.3-4.5V75.1h35.5v18.4l13.3,4.5l13.3,4.5
			c6.2,2.1,11.6,6.2,15.4,11.5l-0.2,7.8H35L35.1,114.1z"/>
		<path class="st2" d="M35.1,114.1c3.8-5.4,9.2-9.4,15.5-11.5L63.8,98l13.3-4.5L94,105l18.6-11.5l13.3,4.5l13.3,4.5
			c6.2,2.1,11.6,6.2,15.4,11.5l-0.2,7.8H35L35.1,114.1z"/>
		<path class="st0" d="M122.5,32.5l-1.1,11.1c2.7,0.3,4.6,2.7,4.4,5.3c0,0.2-0.1,0.5-0.1,0.7l-0.3,1.1c-0.6,2.5-2.5,4.5-5,5.3
			l-1.1,14.6c-0.3,4.4-2.9,8.4-6.9,10.4l-10.1,6.4c-2.4,1.5-5.2,2.3-8,2.3l0,0c-2.9,0-5.7-0.8-8.2-2.4L76.7,81
			c-3.9-2.1-6.5-6-6.9-10.4l-1.1-14.3c-2.9-0.5-5.3-2.7-6-5.6V21.1l60.9-0.2L122.5,32.5z"/>
		<path class="st3" d="M110.7,94.6l-16.4,10.9l14.8,10.8c0.7,0.5,1.6,0.3,2.1-0.3c0.1-0.2,0.2-0.4,0.3-0.6l2.7-12.8"/>
		<path class="st3" d="M154.6,114.1c-3.8-5.4-9.2-9.4-15.4-11.5L125.9,98l-13.3-4.5v-5.2"/>
		<path class="st3" d="M35.1,114.1c3.8-5.4,9.2-9.4,15.5-11.5L63.8,98l13.3-4.5v-5.2"/>
		<path class="st3" d="M77.8,94.6l16.4,10.9l-14.8,10.8c-0.7,0.5-1.6,0.3-2.1-0.3c-0.1-0.2-0.2-0.4-0.3-0.6l-2.4-11.8"/>
		<path class="st4" d="M92,21l-29.3,0.1v29.6c0.7,2.9,3.1,5.1,6,5.6l1.2,14.3c0.3,4.4,2.9,8.4,6.9,10.4l9.5,6.3
			c2.3,1.5,3.1,2.3,5.8,2.4l-2-8.2c-1.1-4.2-1-8.7,0.3-12.9l2.5-8.2c0.7-2.3,0.9-4.8,0.7-7.2L92,41V21z"/>
		<path class="st3" d="M62.7,50.7c0.7,2.9,3.1,5.1,6,5.6l1.2,14.3c0.3,4.4,2.9,8.4,6.8,10.4l9.5,6.3c2.4,1.6,5.3,2.4,8.2,2.4l0,0
			c2.8,0,5.6-0.8,8-2.3l10.1-6.4c3.9-2.1,6.5-6,6.9-10.4l1.2-14.6c2.5-0.8,4.4-2.8,5-5.3l0.3-1.1c0.6-2.6-1-5.2-3.6-5.9
			c-0.2-0.1-0.4-0.1-0.7-0.1l1.1-11.1"/>
		<path class="st0" d="M130.8,3v10.8c0,6.5-5.3,11.8-11.8,11.8H72.4c-3.3,0-5.9,2.6-5.9,5.9v10.8c0,0.6-0.5,1.2-1.2,1.2c0,0,0,0,0,0
			h-5.5c-0.6,0-1.2-0.5-1.2-1.2V17c1.4-4.1,5.2-4,7.1-3.6c0.5,0.1,1-0.3,1.1-0.8c0,0,0-0.1,0-0.1C67.5,6.5,72.5,2,78.5,2h51.3
			C130.3,2,130.8,2.4,130.8,3C130.8,3,130.8,3,130.8,3z"/>
		<path class="st2" d="M119,18.5H72.4c-3.3,0-5.9,2.6-5.9,5.9l0,0v7c0-3.3,2.6-5.9,5.9-5.9H119c6.5,0,11.8-5.3,11.8-11.8
			c0,0,0,0,0,0v-7C130.8,13.3,125.5,18.5,119,18.5L119,18.5z"/>
		<path class="st3" d="M130.8,3v10.8c0,6.5-5.3,11.8-11.8,11.8H72.4c-3.3,0-5.9,2.6-5.9,5.9v10.8c0,0.6-0.5,1.2-1.2,1.2c0,0,0,0,0,0
			h-5.5c-0.6,0-1.2-0.5-1.2-1.2V17c1.4-4.1,5.2-4,7.1-3.6c0.5,0.1,1-0.3,1.1-0.8c0,0,0-0.1,0-0.1C67.5,6.5,72.5,2,78.5,2h51.3
			C130.3,2,130.8,2.4,130.8,3C130.8,3,130.8,3,130.8,3z"/>
		<path class="st0" d="M170.3,121.9H17.7c-3.9,0-7.1,3.1-7.1,7c0,0.5,0,1,0.1,1.4l14.7,73.4c0.6,3.3,3.5,5.7,6.9,5.7h123.3
			c3.4,0,6.2-2.4,6.9-5.7l14.7-73.4c0.8-3.8-1.7-7.6-5.6-8.3C171.2,121.9,170.7,121.9,170.3,121.9z"/>
		<path class="st2" d="M24,196.4l1.5,7.3c0.6,3.3,3.5,5.7,6.9,5.7h123.3c3.4,0,6.2-2.4,6.9-5.7l1.5-7.3H24z"/>
		<path class="st3" d="M171.5,197.8H182c2,0,3.7,1.6,3.7,3.7c0,0.5-0.1,1-0.3,1.5l0,0c-4.2,9.7-13.8,16-24.4,16H27
			c-10.6,0-20.2-6.3-24.4-16l0,0c-0.8-1.9,0-4,1.9-4.9c0.5-0.2,1-0.3,1.5-0.3h9.1"/>
		<circle class="st5" cx="47" cy="65" r="5"/>
		<circle class="st5" cx="26" cy="65" r="5"/>
		<circle class="st5" cx="5" cy="65" r="5"/>
		<circle class="st5" cx="184" cy="65" r="5"/>
		<circle class="st5" cx="163" cy="65" r="5"/>
		<circle class="st5" cx="142" cy="65" r="5"/>
		<polyline class="st3" points="82,154.9 71.1,166.1 81.9,177.1 		"/>
		<polyline class="st3" points="106.3,154.9 117.3,166.1 106.5,177.1 		"/>
		<line class="st3" x1="97.4" y1="151.7" x2="90.6" y2="182"/>
		<path class="st3" d="M170.3,121.9H17.7c-3.9,0-7.1,3.1-7.1,7c0,0.5,0,1,0.1,1.4l14.7,73.4c0.6,3.3,3.5,5.7,6.9,5.7h123.3
			c3.4,0,6.2-2.4,6.9-5.7l14.7-73.4c0.8-3.8-1.7-7.6-5.6-8.3C171.2,121.9,170.7,121.9,170.3,121.9z"/>
	</g>
</g>
</svg>
